<?xml version="1.0" encoding="UTF-8"?>
<svg width="16px" height="16px" viewBox="0 0 16 16" version="1.1" xmlns="http://www.w3.org/2000/svg" xmlns:xlink="http://www.w3.org/1999/xlink">
    <!-- Generator: Sketch 48.1 (47250) - http://www.bohemiancoding.com/sketch -->
    <title>facebook</title>
    <desc>Created with Sketch.</desc>
    <defs></defs>
    <g id="Home" stroke="none" stroke-width="1" fill="none" fill-rule="evenodd" transform="translate(-1545.000000, -97.000000)">
        <g id="Group-10" fill="#000000" fill-rule="nonzero">
            <g transform="translate(360.000000, 70.000000)" id="Group-3">
                <g transform="translate(0.000000, 24.000000)">
                    <g id="Group-7" transform="translate(1119.000000, 3.000000)">
                        <path d="M66,2 L66,14 C66,15.1045695 66.8954305,16 68,16 L74.5209751,16 L74.5209751,9.8195335 L72.4379874,9.8195335 L72.4379874,7.29649573 L74.5209751,7.29649573 L74.5209751,5.177592 C74.5209751,3.63657429 75.770206,2.38734338 77.3112238,2.38734338 L79.4888289,2.38734338 L79.4888289,4.65612534 L77.9306431,4.65612534 C77.4409848,4.65612534 77.0440129,5.05309723 77.0440129,5.54275558 L77.0440129,7.29653084 L79.4496829,7.29653084 L79.1172054,9.8195686 L77.0440129,9.8195686 L77.0440129,16 L80,16 C81.1045695,16 82,15.1045695 82,14 L82,2 C82,0.8954305 81.1045695,-2.02906125e-16 80,0 L68,0 C66.8954305,2.02906125e-16 66,0.8954305 66,2 Z" id="facebook"></path>
                    </g>
                </g>
            </g>
        </g>
    </g>
</svg>