<?xml version="1.0" encoding="UTF-8"?>
<svg width="16px" height="16px" viewBox="0 0 16 16" version="1.1" xmlns="http://www.w3.org/2000/svg" xmlns:xlink="http://www.w3.org/1999/xlink">
    <!-- Generator: Sketch 48.1 (47250) - http://www.bohemiancoding.com/sketch -->
    <title>facebook-dark</title>
    <desc>Created with Sketch.</desc>
    <defs></defs>
    <g id="Mk2Swag---Feature-Post" stroke="none" stroke-width="1" fill="none" fill-rule="evenodd" transform="translate(-1023.000000, -3937.000000)">
        <g id="Group-22" transform="translate(882.000000, 3934.000000)" fill="#0D0D0D" fill-rule="nonzero">
            <g id="Group-21" transform="translate(91.000000, 3.000000)">
                <path d="M50,2 L50,14 C50,15.1045695 50.8954305,16 52,16 L58.5209751,16 L58.5209751,9.8195335 L56.4379874,9.8195335 L56.4379874,7.29649573 L58.5209751,7.29649573 L58.5209751,5.177592 C58.5209751,3.63657429 59.770206,2.38734338 61.3112238,2.38734338 L63.4888289,2.38734338 L63.4888289,4.65612534 L61.9306431,4.65612534 C61.4409848,4.65612534 61.0440129,5.05309723 61.0440129,5.54275558 L61.0440129,7.29653084 L63.4496829,7.29653084 L63.1172054,9.8195686 L61.0440129,9.8195686 L61.0440129,16 L64,16 C65.1045695,16 66,15.1045695 66,14 L66,2 C66,0.8954305 65.1045695,-2.02906125e-16 64,0 L52,0 C50.8954305,2.02906125e-16 50,0.8954305 50,2 Z" id="facebook-dark"></path>
            </g>
        </g>
    </g>
</svg>