<?xml version="1.0" encoding="UTF-8"?>
<svg width="16px" height="16px" viewBox="0 0 16 16" version="1.1" xmlns="http://www.w3.org/2000/svg" xmlns:xlink="http://www.w3.org/1999/xlink">
    <!-- Generator: Sketch 48.1 (47250) - http://www.bohemiancoding.com/sketch -->
    <title>instagram</title>
    <desc>Created with Sketch.</desc>
    <defs></defs>
    <g id="Home" stroke="none" stroke-width="1" fill="none" fill-rule="evenodd" transform="translate(-1479.000000, -97.000000)">
        <g id="Group-10" fill="#000000">
            <g transform="translate(360.000000, 70.000000)" id="Group-3">
                <g transform="translate(0.000000, 24.000000)">
                    <g id="Group-7" transform="translate(1119.000000, 3.000000)">
                        <path d="M8,0 C5.82732457,0 5.55489417,0.00915227492 4.70162489,0.0481458753 C3.85007386,0.0870342772 3.26853366,0.222249496 2.75972105,0.419987727 C2.23362073,0.6244236 1.78747167,0.897974928 1.34272527,1.34271938 C0.897978864,1.78746384 0.624426337,2.23364601 0.420024634,2.75970895 C0.222180337,3.26858946 0.086964526,3.85012711 0.0481460864,4.70163934 C0.00918738138,5.55490488 0,5.82729903 0,7.99996493 C0,10.172701 0.00918738138,10.4450951 0.0481460864,11.2983607 C0.086964526,12.1498729 0.222180337,12.7314105 0.420024634,13.240291 C0.624426337,13.766354 0.897978864,14.2125362 1.34272527,14.6572806 C1.78747167,15.1020251 2.23362073,15.3755764 2.75972105,15.5800123 C3.26853366,15.7777505 3.85007386,15.9129657 4.70162489,15.9518541 C5.55489417,15.9907776 5.82732457,16 8,16 C10.1726754,16 10.4451409,15.9907776 11.2984102,15.9518541 C12.1499261,15.9129657 12.7314663,15.7777505 13.240314,15.5800123 C13.7664143,15.3755764 14.2125283,15.1020251 14.6572747,14.6572806 C15.1020211,14.2125362 15.3755737,13.766354 15.5800104,13.240291 C15.7778197,12.7314105 15.9130355,12.1498729 15.951889,11.2983607 C15.9908477,10.4450951 16,10.172701 16,7.99996493 C16,5.82729903 15.9908477,5.55490488 15.951889,4.70163934 C15.9130355,3.85012711 15.7778197,3.26858946 15.5800104,2.75970895 C15.3755737,2.23364601 15.1020211,1.78746384 14.6572747,1.34271938 C14.2125283,0.897974928 13.7664143,0.6244236 13.240314,0.419987727 C12.7314663,0.222249496 12.1499261,0.0870342772 11.2984102,0.0481458753 C10.4451409,0.00915227492 10.1726754,0 8,0 M8,1.4414307 C10.1361012,1.4414307 10.3890698,1.44956606 11.2326959,1.48803366 C12.0126765,1.52362584 12.4362779,1.65400193 12.7181762,1.76351363 C13.0916327,1.90865258 13.3581369,2.08201981 13.6380365,2.36195319 C13.9180412,2.64192163 14.0914092,2.90838959 14.2364786,3.28180942 C14.3459908,3.5637065 14.4763675,3.98734111 14.5119598,4.76728325 C14.5504276,5.61090558 14.558598,5.86387306 14.558598,7.99996493 C14.558598,10.1361269 14.5504276,10.3890944 14.5119598,11.2326466 C14.4763675,12.0126589 14.3459908,12.4362935 14.2364786,12.7181906 C14.0914092,13.0915753 13.9180412,13.3580784 13.6380365,13.6380468 C13.3581369,13.9179802 13.0916327,14.0913474 12.7181762,14.2364513 C12.4362779,14.3459981 12.0126765,14.4763742 11.2326959,14.5118962 C10.3892101,14.5504339 10.1362766,14.5585342 8,14.5585342 C5.86372343,14.5585342 5.61078991,14.5504339 4.76730414,14.5118962 C3.98735858,14.4763742 3.56372212,14.3459981 3.2818238,14.2364513 C2.90840233,14.0913474 2.64189814,13.9179802 2.36196354,13.6380468 C2.082064,13.3580784 1.90869601,13.0915753 1.76355643,12.7181906 C1.65400918,12.4362935 1.52366759,12.0126589 1.48804019,11.2326466 C1.44960748,10.3890944 1.44143702,10.1361269 1.44143702,7.99996493 C1.44143702,5.86387306 1.44960748,5.61090558 1.48804019,4.76728325 C1.52366759,3.98734111 1.65400918,3.5637065 1.76355643,3.28180942 C1.90869601,2.90838959 2.082064,2.64192163 2.36196354,2.36195319 C2.64189814,2.08201981 2.90840233,1.90865258 3.2818238,1.76351363 C3.56372212,1.65400193 3.98735858,1.52362584 4.76730414,1.48803366 C5.61093018,1.44956606 5.86389876,1.4414307 8,1.4414307 Z M8,3.89189094 C5.73117266,3.89189094 3.891908,5.73118261 3.891908,7.99996493 C3.891908,10.2688525 5.73117266,12.108074 8,12.108074 C10.2688273,12.108074 12.108092,10.2688525 12.108092,7.99996493 C12.108092,5.73118261 10.2688273,3.89189094 8,3.89189094 Z M8,10.6666433 C6.52724874,10.6666433 5.33330996,9.47274481 5.33330996,7.99996493 C5.33330996,6.52722013 6.52724874,5.33332164 8,5.33332164 C9.47278633,5.33332164 10.66669,6.52722013 10.66669,7.99996493 C10.66669,9.47274481 9.47278633,10.6666433 8,10.6666433 Z M13.2304604,3.72956956 C13.2304604,4.25973525 12.8006522,4.68957658 12.2704492,4.68957658 C11.7402811,4.68957658 11.3104379,4.25973525 11.3104379,3.72956956 C11.3104379,3.19936881 11.7402811,2.76956255 12.2704492,2.76956255 C12.8006522,2.76956255 13.2304604,3.19936881 13.2304604,3.72956956" id="instagram"></path>
                    </g>
                </g>
            </g>
        </g>
    </g>
</svg>