<?xml version="1.0" encoding="UTF-8"?>
<svg width="112px" height="70px" viewBox="0 0 112 70" version="1.1" xmlns="http://www.w3.org/2000/svg" xmlns:xlink="http://www.w3.org/1999/xlink">
    <!-- Generator: Sketch 48.1 (47250) - http://www.bohemiancoding.com/sketch -->
    <title>logo</title>
    <desc>Created with Sketch.</desc>
    <defs>
        <linearGradient x1="4.05288286%" y1="50%" x2="92.5682311%" y2="71.4036638%" id="linearGradient-1">
            <stop stop-color="#BE1DBA" offset="0%"></stop>
            <stop stop-color="#FF003A" offset="100%"></stop>
        </linearGradient>
    </defs>
    <g id="Home" stroke="none" stroke-width="1" fill="none" fill-rule="evenodd" transform="translate(-910.000000, -70.000000)">
        <g id="Group-10">
            <g id="logo" transform="translate(910.000000, 70.000000)">
                <g id="Group" fill="url(#linearGradient-1)">
                    <path d="M41.9199812,34.5589345 C42.244771,34.0999516 42.5738108,33.6420357 42.9071014,33.1851858 C44.2573555,31.393584 45.6480965,29.6562993 47.0793659,27.9732794 C48.5106353,26.2902596 49.9553856,24.5801199 51.4136601,22.8428091 C53.3040159,20.6711705 55.2078457,18.5674273 57.1252066,16.5315162 C59.0425675,14.4956051 60.973402,12.473297 62.917768,10.4645314 C63.7819307,9.54158503 64.6595827,8.63222504 65.5507505,7.73642415 C66.4419182,6.84062326 67.2925656,5.93126327 68.1027181,5.0083169 C68.8588604,4.24824342 69.5879867,3.50175388 70.2901189,2.76882588 C70.9922511,2.03589788 71.7213774,1.28940833 72.4775197,0.529334853 L72.8825939,0.122154667 C73.2066549,-0.0407182222 73.5577158,-0.0407182222 73.9357869,0.122154667 C74.2058378,0.285027556 74.5433962,0.50218815 74.9484725,0.773642965 C75.3535487,1.04509778 75.7181119,1.35726613 76.0421729,1.71015739 C76.3662339,2.06304865 76.5957736,2.42950716 76.7307991,2.8095439 C76.8658245,3.18958064 76.7983128,3.5424666 76.528262,3.86821238 C74.6379061,5.82268705 72.761081,7.73641479 70.8977302,9.60945301 C69.0343795,11.4824912 67.184559,13.396219 65.3482134,15.3506936 C63.619888,17.0337135 61.9185933,18.7574257 60.2442781,20.521882 C58.569963,22.2863383 56.9496823,24.1186308 55.3833875,26.0188145 C55.1673468,26.3988513 54.8973,26.7517372 54.573239,27.077483 C54.249178,27.4032288 53.9521266,27.7289697 53.6820757,28.0547154 C54.4922282,27.5660968 55.2753639,27.091058 56.0315062,26.6295848 C56.7876485,26.1681116 57.5707842,25.6659277 58.3809367,25.1230181 C59.9472315,24.2000717 61.5135029,23.2907117 63.0797977,22.3949109 C64.6460925,21.49911 66.2123639,20.58975 67.7786587,19.6668036 C68.0487095,19.9382584 68.3727657,20.155419 68.7508369,20.3182919 C68.9668775,20.4811648 69.2099196,20.6847529 69.4799705,20.9290622 C69.7500213,21.1733715 69.9660587,21.4312497 70.1280892,21.7027045 C70.2901197,21.9741594 70.3441291,22.2591826 70.2901189,22.5577829 C70.2361087,22.8563832 70.0200713,23.1142614 69.6420001,23.3314253 C68.4537765,24.0372078 67.2655706,24.7022621 66.077347,25.3266082 C64.8891233,25.9509543 63.6739128,26.5888635 62.431679,27.2403551 C61.2974655,27.8375557 60.163269,28.4890375 59.0290555,29.19482 L56.4365804,30.8235407 L56.0315062,30.9864128 C55.8154656,31.7464863 55.6264328,32.4522582 55.4644023,33.1037498 C55.3023718,33.7552413 55.1673484,34.4338682 55.0593281,35.1396507 C55.0053179,35.3025236 54.8837969,35.7504173 54.6947613,36.4833453 C54.5057257,37.2162733 54.3301953,37.9899079 54.1681648,38.8042724 C54.0061343,39.6186368 53.9116179,40.3786989 53.8846128,41.0844814 C53.8576077,41.7902639 53.9791288,42.19744 54.2491796,42.306022 C54.2491796,42.4688949 54.3301937,42.4688949 54.4922242,42.306022 C54.5462343,42.306022 54.6947601,42.1974417 54.9378058,41.9802778 C55.1808516,41.763114 55.4508983,41.5323808 55.7479543,41.2880715 C56.0450102,41.0437622 56.3285593,40.813029 56.5986101,40.5958652 C56.868661,40.3787013 57.0576937,40.242976 57.165714,40.188685 C58.0838869,39.4829025 59.0155483,38.7499855 59.9607262,37.989912 C60.9059041,37.2298385 61.8375655,36.4697764 62.7557383,35.709703 C63.5118807,35.0582114 64.2680117,34.4338747 65.024154,33.8366741 L67.2925696,32.0450813 C67.724651,31.6107536 68.1972328,31.1900049 68.7103294,30.7828227 C69.223426,30.3756405 69.7770219,29.9548918 70.3711337,29.5205641 C70.4791541,29.4119822 70.6276798,29.3169744 70.8167154,29.235538 C71.005751,29.1541015 71.1542767,29.1948192 71.262297,29.357692 C71.3703174,29.411983 71.4783361,29.4934182 71.5863564,29.6020002 L71.9104158,29.9277443 C72.0184361,30.0906172 72.1129525,30.2806327 72.1939678,30.4977966 C72.274983,30.7149604 72.2614807,30.8778309 72.1534603,30.9864128 C72.04544,31.1492857 71.964426,31.257866 71.9104158,31.3121569 L71.262297,31.9636452 C70.8842259,32.289391 70.5196627,32.6287044 70.1685966,32.9815957 C69.8175306,33.334487 69.4529674,33.6738004 69.0748962,33.9995462 C68.0487031,34.9767835 67.009023,35.9811513 65.9558247,37.0126795 C64.9026265,38.0442078 63.8359417,39.0214305 62.7557383,39.9443769 C61.1354333,41.4645239 59.5421573,42.9575029 57.9758625,44.4233589 C56.4095677,45.8892149 54.8162916,47.382194 53.1959866,48.902341 C53.0339561,49.0652139 52.8719281,49.1466491 52.7098976,49.1466491 C52.4398467,49.255231 52.1833023,49.2416585 51.9402566,49.1059311 C51.6972108,48.9702037 51.4406664,48.8480508 51.1706155,48.7394689 C50.9005647,48.576596 50.6440203,48.400153 50.4009745,48.2101347 C50.1579288,48.0201163 49.9013843,47.8165282 49.6313335,47.5993644 C49.3072725,47.3279096 48.969714,47.0293138 48.6186479,46.703568 C48.2675818,46.3778222 47.9030187,46.0792264 47.5249475,45.8077716 L47.5249475,45.1562833 C47.4709373,44.8848285 47.457435,44.5726601 47.4844401,44.2197688 C47.5114452,43.8668776 47.5249475,43.5275642 47.5249475,43.2018184 L48.9021999,36.6054994 C48.6861592,36.8226632 48.4836241,37.0126787 48.2945885,37.1755516 C48.105553,37.3384245 47.8760132,37.52844 47.6059624,37.7456039 C47.4439319,37.9084768 47.2819038,38.0849198 47.1198733,38.2749381 C46.9578428,38.4649565 46.76881,38.6413995 46.5527694,38.8042724 L45.0945022,40.270121 C44.7704412,40.5958668 44.5544037,40.8401725 44.4463834,41.0030454 C43.6902411,42.2517375 42.9476124,43.527556 42.2184752,44.8305391 C41.4893379,46.1335222 40.773714,47.4364858 40.0715818,48.7394689 C40.0175716,48.8480508 39.9770646,48.902341 39.9500595,48.902341 C39.9230544,48.902341 39.8825474,48.9294861 39.8285373,48.983777 C39.5044763,49.092359 39.1399131,48.943061 38.7348369,48.5358788 C38.3297606,48.1286966 38.0462115,47.8165282 37.884181,47.5993644 C37.3440793,47.0564548 36.8849998,46.4592631 36.5069286,45.8077716 C36.2368778,45.5363168 36.1018544,45.3191562 36.1018544,45.1562833 C35.9938341,44.8848285 35.9938341,44.5726601 36.1018544,44.2197688 C36.1182229,44.1662946 36.1352115,44.1131321 36.1528201,44.0602814 C36.0216562,44.1814916 35.8904005,44.3025174 35.7590528,44.4233589 C34.1657529,45.8892149 32.5859792,47.382194 31.0196844,48.902341 C30.8576539,49.0652139 30.6956258,49.1466491 30.5335953,49.1466491 C30.2635445,49.255231 30.007,49.2416585 29.7639543,49.1059311 C29.5209085,48.9702037 29.2643641,48.8480508 28.9943132,48.7394689 C28.7242624,48.576596 28.467718,48.400153 28.2246722,48.2101347 C27.9816265,48.0201163 27.725082,47.8165282 27.4550312,47.5993644 C27.07696,47.3279096 26.7123969,47.0293138 26.3613308,46.703568 C26.0102647,46.3778222 25.6727062,46.0792264 25.3486452,45.8077716 C25.1866147,45.5906077 25.1056007,45.3734471 25.1056007,45.1562833 C24.9975804,44.5047917 25.0785944,43.8533099 25.3486452,43.2018184 C25.4566656,43.0389455 25.5781866,42.8353574 25.713212,42.5910481 C25.8482374,42.3467388 25.9697585,42.1160056 26.0777788,41.8988418 C26.4018398,41.1930593 26.8339147,40.5415775 27.3740163,39.9443769 C27.9681282,39.0757215 28.5487288,38.2070791 29.1158355,37.3384237 C29.6829423,36.4697683 30.2905475,35.6011259 30.9386695,34.7324705 C31.1547102,34.4067247 31.5192733,33.9045409 32.0323699,33.2259038 C32.5454665,32.5472668 33.0990624,31.8550674 33.6931742,31.1492849 C34.2872861,30.4435023 34.8543843,29.7648755 35.394486,29.1133839 L36.6097086,27.6475353 C35.2054443,28.7876455 33.720187,30.0906091 32.1538922,31.5564651 C30.5875974,33.0223211 29.021326,34.5695903 27.4550312,36.1983192 C25.8887364,37.8270481 24.362972,39.4557525 22.8776925,41.0844814 C21.3924129,42.7132103 20.0556813,44.2061894 18.8674576,45.5634635 C18.5974068,45.9435002 18.286853,46.3371038 17.9357869,46.744286 C17.5847208,47.1514682 17.2201577,47.5179267 16.8420865,47.8436725 L16.599042,48.0879806 C16.4910216,48.1965625 16.3695006,48.3051428 16.2344752,48.4137248 C16.0994498,48.5223067 15.9644264,48.6173145 15.829401,48.6987509 C15.6943755,48.7801873 15.5998592,48.7937599 15.545849,48.7394689 L15.0192525,48.2101347 C14.8302169,48.0201163 14.6546865,47.8165282 14.492656,47.5993644 C14.2766153,47.3279096 14.0605779,47.0293138 13.8445373,46.703568 C13.6284966,46.3778222 13.4124592,46.0792264 13.1964185,45.8077716 C13.0883982,45.5906077 13.0883982,45.3734471 13.1964185,45.1562833 C13.1424083,44.8305375 13.1559107,44.5183691 13.2369259,44.2197688 C13.3179412,43.9211685 13.4124575,43.5818551 13.5204779,43.2018184 C13.6284982,43.0932365 13.7365169,42.930366 13.8445373,42.7132022 C13.9525576,42.4960383 14.0335716,42.3060228 14.0875818,42.1431499 C14.3036225,41.7631132 14.5196599,41.4102272 14.7357005,41.0844814 C14.9517412,40.7587356 15.1947833,40.4329947 15.4648342,40.107249 C16.058946,39.2928845 16.6530489,38.4513872 17.2471607,37.5827318 C17.8412726,36.7140764 18.4353755,35.8182889 19.0294873,34.8953426 C19.1915178,34.6238878 19.5425786,34.148849 20.0826803,33.4702119 C20.622782,32.7915749 21.1898802,32.0722304 21.783992,31.3121569 C22.3781039,30.5520835 22.9587045,29.8191665 23.5258112,29.1133839 C24.092918,28.4076014 24.4844858,27.9189901 24.7005265,27.6475353 C23.3502723,28.7333545 21.8920197,30.0227456 20.3257248,31.515747 C18.75943,33.0087485 17.1931587,34.5560177 15.6268638,36.1576012 C14.060569,37.7591846 12.5213024,39.3743165 11.0090177,41.0030454 C9.49673302,42.6317743 8.14649911,44.1518984 6.95827545,45.5634635 C6.52619412,46.214955 6.01310523,46.8392917 5.4189934,47.4364923 L4.77087464,48.0879806 C4.55483397,48.3051445 4.33879655,48.4680149 4.12275588,48.5765968 L4.04174104,48.7394689 C4.04174104,48.8480508 4.01473636,48.902341 3.96072619,48.902341 C3.90671602,48.902341 3.85270667,48.9294861 3.7986965,48.983777 C3.52864567,49.092359 3.17758485,48.943061 2.74550352,48.5358788 C2.31342219,48.1286966 2.01637073,47.8165282 1.85434023,47.5993644 C1.58428939,47.3279096 1.32774495,47.0293138 1.0846992,46.703568 C0.84165345,46.3778222 0.612113685,46.0792264 0.396073019,45.8077716 L0.0720136399,45.1562833 C-0.0360066933,44.8848285 -0.0225043542,44.5726601 0.112521062,44.2197688 C0.247546479,43.8668776 0.369067531,43.5275642 0.477087864,43.2018184 C1.3952607,41.4645076 2.40793613,39.7679404 3.51514454,38.1120661 C4.62235296,36.4561917 5.74304711,34.8139147 6.8772606,33.1851858 C8.22751477,31.393584 9.63175804,29.6562993 11.0900325,27.9732794 C12.548307,26.2902596 14.0065597,24.5801199 15.4648342,22.8428091 C15.734885,22.4627723 16.0319364,22.1098864 16.3559974,21.7841406 C16.6800584,21.4583948 17.0041146,21.1055088 17.3281756,20.7254721 C17.5442162,20.4540173 17.85477,20.1147039 18.2598463,19.7075216 C18.6649225,19.3003394 19.0834951,19.1238964 19.5155764,19.1781874 C19.7316171,19.1781874 19.9206498,19.2460501 20.0826803,19.3817775 C20.2447108,19.5175049 20.4337436,19.6668028 20.6497842,19.8296757 C20.9198351,19.9925486 21.2033842,20.1689916 21.5004401,20.3590099 C21.797496,20.5490283 22.0810451,20.7526164 22.351096,20.9697802 C22.5131265,21.0783621 22.6751545,21.2140875 22.837185,21.3769604 C22.9992155,21.5398333 23.0262202,21.7569939 22.9181999,22.0284487 C22.8641897,22.1370306 22.796678,22.2320384 22.7156628,22.3134748 L22.5131257,22.5170649 C19.6505868,25.5573588 17.0041284,28.6518973 14.5736709,31.8007732 C15.6538742,30.8778268 16.7475637,29.9820393 17.8547721,29.1133839 C18.9619805,28.2447285 20.0826746,27.4303763 21.2168881,26.6703028 C22.8371931,25.5301926 24.4574738,24.3765269 26.0777788,23.2092712 C27.6980838,22.0420155 29.2913598,20.9154949 30.8576547,19.8296757 C30.965675,19.6125118 31.1547077,19.4360688 31.4247586,19.3003414 C31.6948094,19.164614 31.9648562,19.0967513 32.234907,19.0967513 C32.5049579,19.0967513 32.7209953,19.1781866 32.8830258,19.3410595 C33.1530766,19.5039323 33.4906351,19.7210929 33.8957113,19.9925478 C34.3007876,20.2640026 34.6653508,20.5761709 34.9894118,20.9290622 C35.3134728,21.2819534 35.5295102,21.648412 35.6375305,22.0284487 C35.7455508,22.4084854 35.6645368,22.7885165 35.394486,23.1685532 C35.0164148,23.440008 34.665354,23.7386038 34.341293,24.0643496 L33.3691149,25.0415821 C32.7209929,25.8016556 32.0458759,26.5481451 31.3437437,27.2810731 C30.6416116,28.0140011 29.9394899,28.7876357 29.2373578,29.6020002 C29.8854798,29.0590905 30.533592,28.5569067 31.181714,28.0954335 C31.829836,27.6339603 32.4779483,27.1589215 33.1260703,26.6703028 C34.6923652,25.5301926 36.2856412,24.3765269 37.9059462,23.2092712 C39.5262512,22.0420155 41.1465319,20.9154949 42.7668369,19.8296757 C42.8748572,19.6125118 43.0638899,19.4360688 43.3339408,19.3003414 C43.6039916,19.164614 43.8470337,19.0967513 44.0630744,19.0967513 C44.4411455,19.0967513 44.7111923,19.1781866 44.8732228,19.3410595 C45.0892635,19.5039323 45.3998173,19.7210929 45.8048935,19.9925478 C46.2099698,20.2640026 46.5745329,20.5761709 46.8985939,20.9290622 C47.2226549,21.2819534 47.4386924,21.648412 47.5467127,22.0284487 C47.654733,22.4084854 47.573719,22.7885165 47.3036682,23.1685532 C46.7635665,23.6028809 46.2504776,24.0643472 45.7643861,24.5529658 C45.2782946,25.0415845 44.8192151,25.584486 44.3871337,26.1816866 C42.2267271,28.1904522 40.2283809,30.4163483 38.3920352,32.8594416 C38.2840149,33.0223145 38.1624938,33.185185 38.0274684,33.3480579 C37.892443,33.5109308 37.770922,33.6738012 37.6629016,33.8366741 C36.798739,34.8682024 35.9345893,36.0354406 35.0704266,37.3384237 C34.7463656,37.7727514 34.4358118,38.2070726 34.1387559,38.6414003 C33.8417,39.075728 33.5581508,39.5100492 33.2881,39.9443769 C32.8560187,40.4329956 32.5589672,41.0030421 32.3969367,41.6545337 C32.3969367,41.7088246 32.3564297,41.8309775 32.2754144,42.0209958 C32.1943992,42.2110142 32.1808969,42.306022 32.234907,42.306022 L32.3159219,42.306022 C32.369932,42.306022 32.5184578,42.1974417 32.7615035,41.9802778 C33.0045493,41.763114 33.2745961,41.5323808 33.571652,41.2880715 C33.8687079,41.0437622 34.152257,40.813029 34.4223078,40.5958652 C34.6923587,40.3787013 34.8813914,40.242976 34.9894118,40.188685 C35.9615947,39.4829025 36.8932561,38.7499855 37.7844239,37.989912 C38.6755916,37.2298385 39.607253,36.4697764 40.579436,35.709703 C41.0361384,35.3162086 41.4829851,34.9326205 41.9199812,34.5589345 Z M76.1608747,40.9893453 C78.8733589,41.0352693 81.5633593,41.1832085 84.2309342,41.4331736 C86.8617674,41.6796958 89.5144555,41.9814338 92.1890747,42.338393 C92.3412688,42.2779804 92.4714655,42.2672392 92.6038296,42.3502851 L92.8168429,42.4195139 C93.0488919,42.5750175 93.1933422,42.8031909 93.2325364,43.0789768 C93.257622,43.2554891 93.2705238,43.3981461 93.2705238,43.5117615 L93.2705238,44.4306517 C93.2705238,44.8762034 93.2471969,45.3217185 93.2005518,45.7671509 C93.1524286,46.2266973 93.0674696,46.6415009 92.9447241,47.011652 C92.7819419,47.5025374 92.4817686,47.8042712 92.0477005,47.8042712 C89.0103888,46.9290683 86.0544277,46.2060073 83.0646785,45.6185064 C80.102435,45.0364106 77.084491,44.9020799 74.0088758,45.2157206 C71.7807949,45.4396871 69.6429078,45.8873958 67.594642,46.558781 C65.5434262,47.2311332 63.5135205,48.1280383 61.5046945,49.2498548 L61.103642,49.301722 C60.6660249,49.1550912 60.556764,48.7889945 60.556764,48.2083115 C60.556764,47.7807904 60.5918981,47.2981277 60.6617868,46.7595287 C60.7308243,46.2274896 60.8115619,45.7405452 60.9041485,45.2984724 C60.9883918,44.8962367 61.0307613,44.6300504 61.0307613,44.5327506 C61.0307613,44.2851519 61.0915347,44.0407943 61.2095654,43.8035057 C61.3950442,43.4306196 61.6768633,43.1343503 62.0464698,42.9189123 L62.4564222,42.6906148 C62.6820613,42.6113217 62.8987918,42.5146766 63.1068305,42.400611 C63.3594764,42.2620877 63.623366,42.1236904 63.8985162,41.9854 C64.2822886,41.8383182 64.6157739,41.686929 64.9384952,41.5139161 C65.2802815,41.3306824 65.6333274,41.1475178 65.9834135,40.9719187 C66.8849869,40.4734754 67.7752589,39.9750498 68.6542561,39.4766273 C69.5358291,38.9767443 70.428672,38.4768794 71.3277325,37.9798727 C73.6244405,36.6671118 75.8760306,35.3091342 78.082576,33.9058989 C80.2929019,32.5002594 82.5032062,31.0719622 84.7154677,29.6197165 C86.111443,28.7144049 87.4961486,27.7864685 88.8696272,26.8358782 C90.2406974,25.8869548 91.6005951,24.8927964 92.9493618,23.8533659 C94.1421688,23.0680135 95.3100181,22.255299 96.4780399,21.397307 C97.644776,20.5402594 98.7664639,19.6607943 99.8460013,18.7565245 C100.338404,18.3515549 100.78559,17.9694704 101.187507,17.6103541 C101.599996,17.2417905 102.056823,16.8740641 102.558005,16.5070116 C102.910999,16.1963218 103.241964,15.8967908 103.550891,15.6084381 C103.846515,15.3325029 104.142936,15.024911 104.440044,14.685621 C104.512025,14.5614108 104.632776,14.4076684 104.809973,14.2072862 C104.975696,14.0198783 105.13184,13.8106037 105.278308,13.5792438 C105.417038,13.3601059 105.513786,13.1558782 105.569981,12.967587 C105.605242,12.8494391 105.604096,12.7593782 105.57262,12.6815993 C105.302978,12.305149 104.951942,12.0231647 104.512884,11.8312774 C104.027495,11.6191418 103.497973,11.4701047 102.923424,11.3845439 C102.343755,11.2982204 101.752982,11.2766261 101.150567,11.3198794 C100.521069,11.3650774 99.9593902,11.4102453 99.4737817,11.4545383 C98.6815606,11.5430205 97.8661255,11.6980941 97.0274233,11.9199526 C96.1734137,12.1458604 95.3646278,12.3716912 94.6031925,12.5968008 C93.7131789,12.865193 92.8342376,13.1783361 91.9663005,13.5362641 C91.0885814,13.8982261 90.1996882,14.2601751 89.2995943,14.6221224 C88.5456991,14.9791209 87.7802586,15.3807448 87.0032829,15.8270392 C86.2198394,16.2770487 85.4475811,16.7495628 84.6864783,17.2446014 C83.3380628,18.0134939 82.0301744,18.9716564 80.7410496,20.1334272 C80.3464838,20.4859758 79.9509534,20.8835625 79.5545949,21.3262504 C79.1644759,21.7619695 78.8063864,22.2419045 78.4803051,22.7663471 C78.156969,23.2863745 77.898983,23.8158342 77.7058935,24.3549824 C77.5260491,24.8571475 77.4768643,25.3416639 77.5553074,25.8147689 C77.5995448,26.5309377 77.875254,27.1446106 78.388605,27.7007398 C78.6348167,27.9482316 78.745673,28.2268131 78.600945,28.5177739 C78.4814985,28.757909 78.249004,28.8747607 77.9463376,28.9127906 C77.750303,28.9374224 77.6000874,28.9500054 77.489212,28.9500054 C76.8954394,28.9500054 76.3874873,28.8493902 75.9676134,28.6422105 C75.7472318,28.5536982 75.4943584,28.4542761 75.2090632,28.3439767 C74.8618634,28.2097441 74.5536987,28.0077223 74.2875464,27.7401863 C73.5007943,26.9493438 73.0312164,25.9804624 72.8838673,24.8448673 C72.7854784,24.0536635 72.8719276,23.2839901 73.1428089,22.5413821 C73.4008869,21.8338736 73.7405212,21.1393011 74.1613151,20.4578307 C74.5825746,19.7756064 75.0628126,19.1515835 75.6018594,18.5861755 C76.1273496,18.0349871 76.6419159,17.5292399 77.1501974,17.0648248 C77.926166,16.3765871 78.7137976,15.7340265 79.5131202,15.1371569 C80.3143781,14.5388422 81.1720748,13.9866652 82.0861064,13.4805899 C83.0012105,12.8835187 83.9505826,12.3550294 84.9341327,11.8951859 C85.9057902,11.4409026 86.8887155,10.9866334 87.8955636,10.5268509 C89.7590187,9.75018183 91.6678018,9.06492943 93.6219195,8.47107822 C95.5924547,7.87223779 97.5865707,7.50359716 99.6184417,7.36460532 C101.042309,7.31843533 102.566702,7.41060486 104.1918,7.64068193 C105.884507,7.88033076 107.311757,8.60369393 108.453577,9.79939719 C108.564265,9.91066049 108.67123,10.045062 108.775726,10.2026218 C108.871889,10.3476153 108.966538,10.5131191 109.060154,10.6993673 L111.686517,14.6255469 C111.89707,14.9772269 111.931954,15.3454166 111.799393,15.7118566 C111.700321,15.9857203 111.565637,16.2687967 111.395741,16.5615602 C111.227819,16.8509242 111.047225,17.1171722 110.853842,17.3601576 C110.664526,17.5980325 110.496976,17.7905145 110.349566,17.9386907 C109.972303,18.2717264 109.603544,18.6087045 109.223363,18.9683819 C108.836116,19.3347448 108.460029,19.6784194 108.100875,19.9942141 C107.594146,20.457272 107.075589,20.8858581 106.545191,21.2799292 C106.031454,21.661622 105.52892,22.0545141 105.037567,22.4586198 C102.345431,24.3406962 99.6338524,26.1805275 96.8749803,27.9990202 C95.3369675,28.9993789 93.7876622,29.9769918 92.2270187,30.9318875 C90.6697991,31.8846882 89.0787438,32.8601644 87.4478864,33.8619125 C85.1453956,35.2233604 82.8767942,36.5621001 80.6420142,37.878172 C78.8923246,38.908572 77.1081837,39.9250433 75.2895594,40.9276063 C75.585097,40.9374157 75.8755383,40.9579893 76.1608747,40.9893453 Z" id="Combined-Shape"></path>
                </g>
                <g id="Group-2" transform="translate(25.025641, 60.261655)" fill="#000000">
                    <path d="M3.53394872,8.84731896 C1.32102564,8.84731896 0.0361025641,7.75806891 0.0955897436,5.99851115 L1.95158974,5.99851115 C1.99917949,6.72866777 2.59405128,7.33912659 3.78379487,7.33912659 C4.71179487,7.33912659 5.35425641,6.93215404 5.35425641,6.30972545 C5.35425641,4.70577483 0.880820513,6.01048093 0.880820513,3.05394509 C0.880820513,1.27044776 2.43938462,0.09740925 4.60471795,0.09740925 C6.61538462,0.09740925 7.91220513,1.13878017 7.82892308,2.73076101 L5.94912821,2.73076101 C5.9134359,2.08439285 5.47323077,1.58166206 4.49764103,1.58166206 C3.5934359,1.58166206 2.93907692,2.01257417 2.93907692,2.68288189 C2.93907692,4.32274185 7.37682051,3.06591487 7.37682051,5.91472268 C7.37682051,7.67428045 5.77066667,8.84731896 3.53394872,8.84731896 Z M15.1339489,8.66777225 L13.8371284,0.288925742 L15.8121027,0.288925742 L16.6092309,5.89078312 L16.6568207,5.89078312 L19.1552822,0.288925742 L20.9755899,0.288925742 L21.7489232,5.9027529 L21.796513,5.9027529 L24.2949745,0.288925742 L26.2699489,0.288925742 L22.4389745,8.66777225 L20.4996925,8.66777225 L19.666872,2.98212641 L19.6192822,2.98212641 L17.0851284,8.66777225 L15.1339489,8.66777225 Z M29.6607183,8.66777225 L34.6338465,0.288925742 L36.4065644,0.288925742 L38.8336413,8.66777225 L36.8467695,8.66777225 L36.394667,6.95609361 L32.6469747,6.95609361 L31.6594875,8.66777225 L29.6607183,8.66777225 Z M33.4916926,5.41199189 L35.9901542,5.41199189 L35.2168208,2.43151649 L35.1811285,2.43151649 L33.4916926,5.41199189 Z M48.482462,8.84731896 C46.07918,8.84731896 44.5920005,7.35109637 44.5920005,5.12471715 C44.5920005,2.16818132 46.7930261,0.09740925 49.8030774,0.09740925 C52.2182569,0.09740925 53.4793851,1.46196425 53.6578466,3.19758246 L51.7066671,3.19758246 C51.4687184,2.24 50.6358979,1.76120877 49.5770261,1.76120877 C47.8043082,1.76120877 46.5074876,3.05394509 46.5074876,4.89729132 C46.5074876,6.2738161 47.364103,7.19548922 48.7442056,7.19548922 C49.9220518,7.19548922 50.8857441,6.5850304 51.266462,5.61547816 L48.86318,5.61547816 L49.0773338,4.14319514 L53.5745646,4.14319514 C53.1581543,7.13564032 51.2783594,8.84731896 48.482462,8.84731896 Z" id="SWAG"></path>
                </g>
            </g>
        </g>
    </g>
</svg>