<?xml version="1.0" encoding="UTF-8"?>
<svg width="96px" height="60px" viewBox="0 0 96 60" version="1.1" xmlns="http://www.w3.org/2000/svg" xmlns:xlink="http://www.w3.org/1999/xlink">
    <!-- Generator: Sketch 48.1 (47250) - http://www.bohemiancoding.com/sketch -->
    <title>logo copy</title>
    <desc>Created with Sketch.</desc>
    <defs>
        <linearGradient x1="4.05288286%" y1="50%" x2="92.5682311%" y2="71.4036638%" id="linearGradient-1">
            <stop stop-color="#E62F98" offset="0%"></stop>
            <stop stop-color="#FF003A" offset="100%"></stop>
        </linearGradient>
    </defs>
    <g id="Home" stroke="none" stroke-width="1" fill="none" fill-rule="evenodd" transform="translate(-912.000000, -80.000000)">
        <g id="logo-copy" transform="translate(912.000000, 80.000000)">
            <g id="Group" fill="url(#linearGradient-1)">
                <path d="M35.9314124,29.6219438 C36.2098037,29.2285299 36.4918379,28.8360306 36.7775155,28.444445 C37.9348762,26.9087863 39.1269398,25.4196851 40.3537422,23.9770966 C41.5805445,22.5345082 42.8189019,21.0686742 44.0688515,19.5795506 C45.6891565,17.7181462 47.3210106,15.9149377 48.9644628,14.169871 C50.607915,12.4248043 52.262916,10.6913975 53.9295155,8.96959834 C54.6702263,8.17850145 55.4224995,7.39905003 56.1863576,6.6312207 C56.9502156,5.86339137 57.6793419,5.08393995 58.3737584,4.29284306 C59.0218804,3.6413515 59.6468458,3.00150332 60.2486733,2.37327932 C60.8505009,1.74505532 61.4754663,1.10520714 62.1235883,0.453715588 L62.4707948,0.104704 C62.7485614,-0.0349013333 63.0494706,-0.0349013333 63.3735316,0.104704 C63.6050038,0.244309333 63.8943396,0.430446986 64.2415478,0.663122541 C64.5887561,0.895798097 64.9012388,1.16337097 65.1790053,1.46584919 C65.4567719,1.76832742 65.6535203,2.0824347 65.7692563,2.40818048 C65.8849924,2.73392626 65.8271252,3.03639995 65.5956531,3.31561061 C63.9753481,4.99087461 62.3666408,6.63121267 60.7694831,8.23667401 C59.1723253,9.84213534 57.5867649,11.4824734 56.0127543,13.1577374 C54.5313326,14.6003258 53.07308,16.0777935 51.6379527,17.5901846 C50.2028254,19.1025757 48.8140134,20.6731121 47.471475,22.301841 C47.2862973,22.6275868 47.0548286,22.9300605 46.777062,23.2092711 C46.4992954,23.4884818 46.2446799,23.7676883 46.0132078,24.046899 C46.7076242,23.628083 47.3788833,23.2209068 48.0270053,22.8253584 C48.6751273,22.42981 49.3463865,21.9993666 50.0408029,21.5340155 C51.3833413,20.7429186 52.7258596,19.9634672 54.068398,19.1956379 C55.4109365,18.4278085 56.7534548,17.6483571 58.0959932,16.8572602 C58.3274653,17.0899358 58.6052277,17.2760734 58.9292887,17.4156788 C59.1144664,17.5552841 59.3227882,17.7297882 59.5542604,17.9391962 C59.7857325,18.1486042 59.9709075,18.3696426 60.1097908,18.6023182 C60.248674,18.8349937 60.2949678,19.0792994 60.2486733,19.3352425 C60.2023789,19.5911856 60.017204,19.8122241 59.693143,19.9983645 C58.6746656,20.603321 57.6562034,21.1733675 56.637726,21.7085213 C55.6192486,22.2436751 54.5776395,22.7904544 53.5128677,23.3488758 C52.5406847,23.860762 51.5685163,24.419175 50.5963333,25.0241314 L48.3742118,26.4201778 L48.0270053,26.5597824 C47.8418276,27.2112739 47.6797995,27.8162213 47.5409163,28.3746427 C47.402033,28.933064 47.2862986,29.5147441 47.1937098,30.1197006 C47.1474154,30.2593059 47.0432545,30.6432148 46.881224,31.2714388 C46.7191935,31.8996628 46.5687388,32.5627782 46.4298555,33.2608049 C46.2909722,33.9588316 46.2099582,34.6103133 46.186811,35.2152698 C46.1636638,35.8202262 46.2678247,36.1692343 46.4992968,36.2623045 C46.4992968,36.4019099 46.5687374,36.4019099 46.7076207,36.2623045 C46.7539151,36.2623045 46.8812229,36.1692357 47.0895478,35.9830953 C47.2978728,35.7969548 47.5293414,35.5991836 47.7839608,35.3897756 C48.0385802,35.1803676 48.2816223,34.9825963 48.5130944,34.7964559 C48.7445665,34.6103154 48.9065946,34.4939794 48.9991835,34.4474443 C49.7861888,33.8424878 50.5847557,33.2142733 51.3949082,32.5627817 C52.2050607,31.9112902 53.0036276,31.2598084 53.7906329,30.6083168 C54.4387549,30.0498955 55.0868671,29.5147497 55.7349891,29.0028635 L57.6793454,27.4672125 C58.0497008,27.0949316 58.454771,26.7342899 58.8945681,26.3852766 C59.3343652,26.0362633 59.8088759,25.6756216 60.3181146,25.3033407 C60.4107035,25.2102705 60.5380113,25.1288352 60.7000418,25.0590326 C60.8620723,24.9892299 60.98938,25.0241307 61.0819689,25.163736 C61.1745577,25.2102711 61.2671452,25.2800728 61.3597341,25.373143 L61.6374993,25.6523523 C61.7300881,25.7919576 61.8111021,25.954828 61.8805438,26.1409685 C61.9499854,26.3271089 61.938412,26.4667122 61.8458231,26.5597824 C61.7532343,26.6993877 61.6837937,26.7924566 61.6374993,26.8389917 L61.0819689,27.3974102 C60.7579079,27.6766209 60.4454252,27.967461 60.1445114,28.2699392 C59.8435976,28.5724174 59.5311149,28.8632575 59.2070539,29.1424681 C58.3274598,29.9801001 57.4363054,30.8409868 56.533564,31.7251539 C55.6308227,32.609321 54.7165214,33.4469404 53.7906329,34.2380373 C52.4018,35.5410204 51.0361348,36.8207168 49.6935964,38.0771648 C48.351058,39.3336128 46.9853928,40.6133092 45.59656,41.9162923 C45.4576767,42.0558976 45.3187955,42.1256992 45.1799122,42.1256992 C44.9484401,42.2187695 44.7285448,42.2071358 44.5202199,42.0907981 C44.311895,41.9744603 44.0919997,41.8697579 43.8605276,41.7766876 C43.6290555,41.6370823 43.4091602,41.4858455 43.2008353,41.3229726 C42.9925104,41.1600997 42.7726151,40.9855956 42.541143,40.7994552 C42.2633764,40.5667796 41.9740406,40.3108404 41.6731268,40.0316297 C41.372213,39.752419 41.0597303,39.4964798 40.7356693,39.2638042 L40.7356693,38.7053857 C40.6893749,38.4727101 40.6778014,38.2051372 40.7009486,37.902659 C40.7240959,37.6001808 40.7356693,37.3093407 40.7356693,37.03013 L41.9161713,31.3761423 C41.7309936,31.5622828 41.5573921,31.7251532 41.3953616,31.8647585 C41.2333311,32.0043639 41.0365827,32.1672343 40.8051106,32.3533748 C40.6662273,32.4929801 40.5273461,32.6442169 40.3884628,32.8070898 C40.2495795,32.9699627 40.0875515,33.1211996 39.9023738,33.2608049 L38.6524304,34.5172466 C38.3746639,34.7964573 38.1894889,35.0058621 38.0969001,35.1454675 C37.4487781,36.215775 36.8122392,37.3093337 36.1872644,38.4261764 C35.5622897,39.5430191 34.9488977,40.659845 34.3470701,41.7766876 C34.3007757,41.8697579 34.2660554,41.9162923 34.2429082,41.9162923 C34.2197609,41.9162923 34.1850406,41.9395595 34.1387462,41.9860946 C33.8609796,42.0791648 33.5484969,41.9511952 33.2012887,41.6021818 C32.8540805,41.2531685 32.6110384,40.9855956 32.4721551,40.7994552 C32.0092108,40.3341041 31.6157141,39.8222255 31.2916531,39.2638042 C31.060181,39.0311286 30.9444466,38.844991 30.9444466,38.7053857 C30.8518578,38.4727101 30.8518578,38.2051372 30.9444466,37.902659 C30.9584768,37.8568239 30.9730384,37.8112561 30.9881315,37.7659554 C30.8757053,37.8698499 30.7632004,37.9735864 30.6506167,38.0771648 C29.284931,39.3336128 27.9308393,40.6133092 26.5883009,41.9162923 C26.4494176,42.0558976 26.3105364,42.1256992 26.1716531,42.1256992 C25.940181,42.2187695 25.7202857,42.2071358 25.5119608,42.0907981 C25.3036359,41.9744603 25.0837406,41.8697579 24.8522685,41.7766876 C24.6207963,41.6370823 24.4009011,41.4858455 24.1925762,41.3229726 C23.9842513,41.1600997 23.764356,40.9855956 23.5328839,40.7994552 C23.2088229,40.5667796 22.8963402,40.3108404 22.5954264,40.0316297 C22.2945126,39.752419 22.0051768,39.4964798 21.7274102,39.2638042 C21.5885269,39.0776638 21.5190863,38.8915261 21.5190863,38.7053857 C21.4264974,38.1469643 21.495938,37.5885514 21.7274102,37.03013 C21.819999,36.8905247 21.9241599,36.7160207 22.039896,36.5066127 C22.1556321,36.2972047 22.259793,36.0994334 22.3523818,35.913293 C22.6301484,35.3083365 23.0004983,34.7499236 23.4634426,34.2380373 C23.9726813,33.4934756 24.4703389,32.7489249 24.9564304,32.0043632 C25.4425219,31.2598014 25.9633264,30.5152508 26.5188596,29.770689 C26.7040373,29.4914783 27.01652,29.061035 27.4563171,28.4793461 C27.8961141,27.8976572 28.3706249,27.3043435 28.8798636,26.699387 C29.3891023,26.0944306 29.8751866,25.5127504 30.3381308,24.9543291 L31.3797503,23.6978874 C30.1760951,24.6751247 28.9030174,25.7919506 27.560479,27.0483986 C26.2179406,28.3048466 24.8754223,29.6310774 23.5328839,31.0271307 C22.1903454,32.4231841 20.8825475,33.8192164 19.6094507,35.2152698 C18.3363539,36.6113231 17.190584,37.8910195 16.1721065,39.0543973 C15.9406344,39.380143 15.6744454,39.7175175 15.3735316,40.0665309 C15.0726179,40.4155442 14.7601352,40.7296515 14.4360742,41.0088621 L14.2277503,41.2182691 C14.1351614,41.3113393 14.0310005,41.4044081 13.9152644,41.4974784 C13.7995284,41.5905486 13.683794,41.6719838 13.568058,41.7417865 C13.4523219,41.8115891 13.3713079,41.8232228 13.3250134,41.7766876 L12.873645,41.3229726 C12.7116145,41.1600997 12.5611599,40.9855956 12.4222766,40.7994552 C12.2370989,40.5667796 12.0519239,40.3108404 11.8667462,40.0316297 C11.6815685,39.752419 11.4963936,39.4964798 11.3112159,39.2638042 C11.218627,39.0776638 11.218627,38.8915261 11.3112159,38.7053857 C11.2649214,38.426175 11.2764949,38.1586021 11.3459365,37.902659 C11.4153781,37.6467159 11.4963922,37.3558758 11.588981,37.03013 C11.6815699,36.9370598 11.7741574,36.7974566 11.8667462,36.6113161 C11.9593351,36.4251757 12.0287757,36.2623052 12.0750701,36.1226999 C12.2602478,35.7969541 12.4454228,35.4944804 12.6306005,35.2152698 C12.8157782,34.9360591 13.0241,34.6568526 13.2555721,34.377642 C13.7648108,33.6796153 14.2740419,32.9583319 14.7832806,32.2137701 C15.2925193,31.4692083 15.8017504,30.7013905 16.3109891,29.9102936 C16.4498724,29.6776181 16.7507817,29.270442 17.213726,28.6887531 C17.6766703,28.1070642 18.1627545,27.4904832 18.6719932,26.8389917 C19.1812319,26.1875001 19.6788895,25.5592855 20.164981,24.9543291 C20.6510725,24.3493726 20.9867021,23.9305629 21.1718798,23.6978874 C20.0145191,24.6285896 18.7645883,25.7337819 17.4220499,27.0134975 C16.0795114,28.293213 14.7369931,29.6194438 13.3944547,30.9922296 C12.0519163,32.3650153 10.7325449,33.7494141 9.43630088,35.1454675 C8.14005688,36.5415208 6.98271353,37.8444844 5.9642361,39.0543973 C5.59388067,39.6128186 5.1540902,40.1479643 4.64485148,40.6598506 L4.08932112,41.2182691 C3.9041434,41.4044095 3.71896847,41.5440128 3.53379075,41.637083 L3.46434946,41.7766876 C3.46434946,41.8697579 3.44120259,41.9162923 3.39490816,41.9162923 C3.34861373,41.9162923 3.30232,41.9395595 3.25602557,41.9860946 C3.02455343,42.0791648 2.72364416,41.9511952 2.35328873,41.6021818 C1.9829333,41.2531685 1.72831776,40.9855956 1.58943448,40.7994552 C1.35796234,40.5667796 1.1380671,40.3108404 0.929742171,40.0316297 C0.721417243,39.752419 0.524668873,39.4964798 0.339491159,39.2638042 L0.0617259771,38.7053857 C-0.0308628799,38.4727101 -0.0192894464,38.2051372 0.0964466248,37.902659 C0.212182696,37.6001808 0.316343598,37.3093407 0.408932455,37.03013 C1.19593774,35.5410065 2.06394525,34.0868061 3.01298104,32.6674852 C3.96201682,31.2481643 4.9226118,29.8404983 5.8947948,28.444445 C7.05215552,26.9087863 8.2557926,25.4196851 9.50574217,23.9770966 C10.7556917,22.5345082 12.0056226,21.0686742 13.2555721,19.5795506 C13.4870443,19.2538048 13.7416598,18.9513312 14.0194264,18.6721205 C14.297193,18.3929098 14.5749554,18.0904361 14.8527219,17.7646904 C15.0378996,17.5320148 15.3040886,17.2411747 15.6512968,16.8921614 C15.998505,16.5431481 16.3572815,16.3919112 16.7276369,16.4384463 C16.9128146,16.4384463 17.0748427,16.4966143 17.213726,16.6129521 C17.3526093,16.7292899 17.5146373,16.8572595 17.699815,16.9968649 C17.9312872,17.1364702 18.1743293,17.287707 18.4289486,17.4505799 C18.683568,17.6134528 18.9266101,17.7879569 19.1580823,17.9740973 C19.2969655,18.0671675 19.4358467,18.1835036 19.57473,18.3231089 C19.7136133,18.4627142 19.7367602,18.6488519 19.6441713,18.8815274 C19.5978769,18.9745977 19.5400097,19.0560329 19.4705681,19.1258356 L19.2969648,19.3003414 C16.8433601,21.9063076 14.5749672,24.5587691 12.4917179,27.2578056 C13.4176064,26.4667087 14.3550546,25.6988909 15.3040903,24.9543291 C16.2531261,24.2097673 17.2137211,23.5117511 18.1859041,22.8602596 C19.574737,21.8830222 20.963549,20.8941659 22.3523818,19.8936611 C23.7412147,18.8931562 25.1068799,17.9275671 26.4494183,16.9968649 C26.5420071,16.8107244 26.7040352,16.6594876 26.9355074,16.5431498 C27.1669795,16.426812 27.3984482,16.368644 27.6299203,16.368644 C27.8613925,16.368644 28.0465674,16.4384456 28.1854507,16.578051 C28.4169228,16.7176563 28.7062587,16.903794 29.0534669,17.1364695 C29.4006751,17.3691451 29.7131578,17.6367179 29.9909244,17.9391962 C30.2686909,18.2416744 30.4538659,18.5557817 30.5464547,18.8815274 C30.6390436,19.2072732 30.569603,19.5330141 30.3381308,19.8587599 C30.0140698,20.0914355 29.7131606,20.3473747 29.435394,20.6265854 L28.6020984,21.4642132 C28.0465653,22.1157048 27.4678936,22.7555529 26.8660661,23.3837769 C26.2642385,24.0120009 25.6624199,24.6751163 25.0605924,25.373143 C25.6161255,24.9077919 26.1716503,24.4773486 26.7271835,24.0818001 C27.2827166,23.6862517 27.8382414,23.2790756 28.3937746,22.8602596 C29.736313,21.8830222 31.1019781,20.8941659 32.490811,19.8936611 C33.8796439,18.8931562 35.2684559,17.9275671 36.6572887,16.9968649 C36.7498776,16.8107244 36.9119057,16.6594876 37.1433778,16.5431498 C37.3748499,16.426812 37.5831717,16.368644 37.7683495,16.368644 C38.0924105,16.368644 38.3238791,16.4384456 38.4627624,16.578051 C38.6479401,16.7176563 38.9141291,16.903794 39.2613373,17.1364695 C39.6085455,17.3691451 39.9210282,17.6367179 40.1987948,17.9391962 C40.4765614,18.2416744 40.6617363,18.5557817 40.7543252,18.8815274 C40.846914,19.2072732 40.7774734,19.5330141 40.5460013,19.8587599 C40.083057,20.2310408 39.6432665,20.6265833 39.2266167,21.0453993 C38.8099668,21.4642153 38.4164701,21.9295594 38.0461146,22.4414456 C36.1943375,24.1632448 34.4814693,26.0711557 32.9074588,28.1652357 C32.8148699,28.304841 32.710709,28.4444443 32.5949729,28.5840496 C32.4792369,28.7236549 32.375076,28.8632582 32.2824871,29.0028635 C31.5417763,29.8870306 30.8010765,30.8875205 30.0603657,32.0043632 C29.7825991,32.3766441 29.5164101,32.7489194 29.2617908,33.1212003 C29.0071714,33.4934811 28.7641293,33.8657564 28.5326572,34.2380373 C28.1623017,34.6568533 27.9076862,35.1454647 27.7688029,35.703886 C27.7688029,35.7504211 27.7340826,35.8551235 27.664641,36.0179964 C27.5951993,36.1808693 27.5836259,36.2623045 27.6299203,36.2623045 L27.6993616,36.2623045 C27.745656,36.2623045 27.8729638,36.1692357 28.0812887,35.9830953 C28.2896137,35.7969548 28.5210823,35.5991836 28.7757017,35.3897756 C29.030321,35.1803676 29.2733631,34.9825963 29.5048353,34.7964559 C29.7363074,34.6103154 29.8983355,34.4939794 29.9909244,34.4474443 C30.8242241,33.8424878 31.622791,33.2142733 32.3866491,32.5627817 C33.1505071,31.9112902 33.949074,31.2598084 34.7823738,30.6083168 C35.1738329,30.271036 35.5568444,29.9422462 35.9314124,29.6219438 Z M65.2807498,35.1337246 C67.6057362,35.173088 69.9114508,35.299893 72.1979436,35.5141488 C74.4529435,35.7254535 76.7266761,35.9840861 79.0192069,36.2900511 C79.149659,36.238269 79.2612561,36.2290622 79.3747111,36.3002444 L79.5572939,36.3595833 C79.7561931,36.4928721 79.8800076,36.6884493 79.9136026,36.9248373 C79.9351046,37.0761335 79.9461632,37.198411 79.9461632,37.2957956 L79.9461632,38.0834158 C79.9461632,38.4653172 79.9261688,38.8471873 79.8861872,39.2289864 C79.8449388,39.6228834 79.7721168,39.9784293 79.6669063,40.2957017 C79.5273788,40.7164606 79.2700874,40.9750896 78.898029,40.9750896 C76.294619,40.2249157 73.760938,39.6051491 71.1982959,39.1015769 C68.65923,38.6026377 66.0724208,38.4874971 63.4361793,38.756332 C61.5263956,38.9483032 59.693921,39.3320535 57.9382645,39.9075266 C56.1800796,40.4838284 54.4401604,41.2526042 52.7183096,42.2141613 L52.3745503,42.2586188 C51.9994499,42.1329353 51.9057977,41.8191382 51.9057977,41.3214098 C51.9057977,40.9549632 51.9359127,40.5412523 51.9958172,40.0795961 C52.0549922,39.6235625 52.1241959,39.2061816 52.2035559,38.8272621 C52.2757644,38.4824886 52.3120811,38.2543289 52.3120811,38.1709291 C52.3120811,37.9587017 52.3641726,37.7492523 52.4653418,37.545862 C52.6243236,37.2262453 52.8658828,36.9723003 53.1826884,36.7876391 L53.5340761,36.5919555 C53.7274811,36.52399 53.9132501,36.4411514 54.091569,36.3433809 C54.3081226,36.2246466 54.5343137,36.1060203 54.7701568,35.9874857 C55.0991045,35.8614156 55.3849491,35.7316534 55.6615673,35.5833567 C55.954527,35.4262992 56.2571378,35.269301 56.5572116,35.1187875 C57.3299888,34.6915503 58.0930791,34.2643284 58.8465053,33.8371091 C59.6021392,33.408638 60.3674331,32.9801824 61.1380564,32.5541766 C63.1066633,31.428953 65.0365977,30.2649722 66.9279223,29.062199 C68.8224873,27.8573652 70.7170339,26.6331104 72.613258,25.3883284 C73.8098083,24.6123471 74.9966988,23.816973 76.1739661,23.0021813 C77.3491692,22.1888184 78.5147958,21.3366826 79.6708815,20.4457422 C80.6932875,19.772583 81.6943012,19.0759706 82.6954628,18.3405488 C83.6955223,17.6059367 84.656969,16.8521094 85.5822868,16.077021 C86.0043463,15.7299042 86.3876489,15.4024032 86.7321486,15.0945893 C87.085711,14.7786776 87.477277,14.4634835 87.9068614,14.1488671 C88.2094277,13.8825615 88.4931117,13.6258207 88.7579067,13.3786613 C89.0112988,13.1421453 89.2653735,12.8784951 89.5200378,12.5876752 C89.581736,12.4812093 89.6852368,12.34943 89.8371193,12.1776739 C89.9791678,12.0170385 90.1130057,11.8376603 90.2385493,11.6393518 C90.3574608,11.4515193 90.4403879,11.276467 90.4885552,11.1150746 C90.518779,11.013805 90.5177963,10.9366099 90.4908173,10.8699422 C90.2596953,10.5472706 89.9588073,10.3055698 89.5824716,10.1410949 C89.1664245,9.95926441 88.7125481,9.8315183 88.2200781,9.75818047 C87.7232185,9.68418896 87.2168418,9.66567952 86.7004862,9.70275381 C86.1609165,9.74149488 85.6794773,9.78021025 85.2632414,9.8181757 C84.5841948,9.89401758 83.8852504,10.0269378 83.1663628,10.2171023 C82.4343546,10.4107375 81.7411095,10.6043067 81.0884507,10.7972578 C80.3255819,11.0273083 79.5722037,11.2957166 78.8282576,11.6025121 C78.0759269,11.9127652 77.3140185,12.2230073 76.5425094,12.5332477 C75.8963135,12.8392465 75.2402216,13.1834956 74.5742425,13.5660336 C73.9027195,13.951756 73.2407838,14.3567681 72.58841,14.781087 C71.4326253,15.4401376 70.311578,16.2614198 69.206614,17.2572233 C68.8684146,17.5594078 68.5293886,17.9001964 68.1896528,18.2796432 C67.8552651,18.6531167 67.5483312,19.0644895 67.2688329,19.5140118 C66.9916877,19.9597495 66.7705569,20.4135722 66.6050516,20.8756992 C66.4508992,21.3061265 66.4087409,21.7214262 66.4759777,22.1269447 C66.5138955,22.7408038 66.7502177,23.2668091 67.1902329,23.7434913 C67.4012715,23.9556271 67.4962911,24.1944112 67.3722386,24.4438062 C67.2698558,24.6496363 67.0705748,24.7497948 66.8111465,24.782392 C66.6431168,24.8035049 66.5143606,24.8142904 66.4193246,24.8142904 C65.9103766,24.8142904 65.4749891,24.7280487 65.1150972,24.5504662 C64.9261987,24.4745984 64.70945,24.3893795 64.4649113,24.2948372 C64.1673115,24.1797807 63.9031703,24.0066191 63.6750398,23.7773025 C63.0006808,23.0994376 62.5981855,22.2689678 62.4718863,21.2956005 C62.3875529,20.6174259 62.4616522,19.9577058 62.6938362,19.3211846 C62.9150459,18.7147488 63.206161,18.1194009 63.5668415,17.5352835 C63.9279211,16.9505197 64.3395536,16.415643 64.8015938,15.9310076 C65.2520139,15.4585604 65.6930708,15.0250628 66.1287407,14.6269927 C66.7938565,14.0370747 67.4689694,13.4863084 68.154103,12.9747059 C68.8408955,12.4618648 69.5760642,11.9885702 70.3595198,11.5547914 C71.1438947,11.043016 71.9576423,10.5900252 72.8006852,10.1958736 C73.6335344,9.80648795 74.4760419,9.41711434 75.3390545,9.02301509 C76.9363018,8.35729871 78.5724015,7.76993951 80.2473596,7.26092418 C81.9363897,6.74763239 83.6456321,6.43165471 85.3872358,6.31251884 C86.6076933,6.27294457 87.914316,6.35194702 89.3072575,6.54915594 C90.7581487,6.75456923 91.9815059,7.37459479 92.9602086,8.3994833 C93.0550839,8.49485185 93.1467682,8.61005315 93.2363368,8.74510441 C93.3187616,8.86938453 93.3998899,9.01124491 93.4801323,9.17088623 L95.7313006,12.5361831 C95.9117744,12.837623 95.9416753,13.1532142 95.8280509,13.4673056 C95.7431323,13.7020459 95.6276887,13.9446829 95.4820641,14.195623 C95.3381304,14.4436493 95.1833357,14.6718619 95.0175789,14.880135 C94.8553083,15.0840279 94.7116935,15.2490124 94.5853422,15.3760206 C94.2619736,15.6614798 93.9458947,15.9503181 93.6200255,16.2586131 C93.2880993,16.5726384 92.9657392,16.8672166 92.6578929,17.1378978 C92.2235536,17.5348046 91.7790759,17.9021641 91.3244494,18.2399393 C90.8841034,18.5671046 90.4533597,18.9038693 90.0322004,19.2502456 C87.7246552,20.8634539 85.400445,22.4404521 83.0356974,23.9991602 C81.7174007,24.8566105 80.3894247,25.6945644 79.0517303,26.5130464 C77.7169707,27.3297328 76.353209,28.1658552 74.9553312,29.0244964 C72.9817676,30.1914517 71.0372522,31.338943 69.1217265,32.4670046 C67.6219925,33.3502046 66.0927289,34.2214657 64.5339081,35.0808054 C64.787226,35.0892135 65.0361756,35.1068479 65.2807498,35.1337246 Z" id="Combined-Shape"></path>
            </g>
            <g id="Group-2" transform="translate(21.450549, 51.652847)" fill="#000000">
                <path d="M3.0290989,7.58341625 C1.13230769,7.58341625 0.0309450549,6.64977336 0.0819340659,5.14158098 L1.67279121,5.14158098 C1.71358242,5.76742952 2.22347253,6.29067993 3.24325275,6.29067993 C4.03868132,6.29067993 4.58936264,5.94184632 4.58936264,5.4083361 C4.58936264,4.03352128 0.754989011,5.1518408 0.754989011,2.61766722 C0.754989011,1.08895522 2.0909011,0.0834936429 3.9469011,0.0834936429 C5.67032967,0.0834936429 6.78189011,0.976097291 6.71050549,2.34065229 L5.09925275,2.34065229 C5.06865934,1.78662244 4.69134066,1.35571034 3.85512088,1.35571034 C3.08008791,1.35571034 2.51920879,1.72506357 2.51920879,2.29961305 C2.51920879,3.7052073 6.32298901,2.62792703 6.32298901,5.0697623 C6.32298901,6.57795467 4.94628571,7.58341625 3.0290989,7.58341625 Z M12.9719562,7.42951907 L11.8603957,0.247650636 L13.5532309,0.247650636 L14.2364837,5.04924268 L14.2772749,5.04924268 L16.4188133,0.247650636 L17.9790771,0.247650636 L18.6419342,5.05950249 L18.6827254,5.05950249 L20.8242639,0.247650636 L22.517099,0.247650636 L19.2334067,7.42951907 L17.571165,7.42951907 L16.8573188,2.55610835 L16.8165276,2.55610835 L14.6443957,7.42951907 L12.9719562,7.42951907 Z M25.4234728,7.42951907 L29.6861541,0.247650636 L31.2056266,0.247650636 L33.2859783,7.42951907 L31.5829453,7.42951907 L31.1954288,5.96236595 L27.9831211,5.96236595 L27.1367036,7.42951907 L25.4234728,7.42951907 Z M28.7071651,4.63885019 L30.8487036,4.63885019 L30.1858464,2.08415699 L30.155253,2.08415699 L28.7071651,4.63885019 Z M41.556396,7.58341625 C39.49644,7.58341625 38.2217147,6.30093975 38.2217147,4.3926147 C38.2217147,1.85844113 40.1083081,0.0834936429 42.6883521,0.0834936429 C44.7585059,0.0834936429 45.8394729,1.25311222 45.99244,2.74078496 L44.3200004,2.74078496 C44.1160444,1.92 43.4021982,1.50960752 42.4945938,1.50960752 C40.9751213,1.50960752 39.8635608,2.61766722 39.8635608,4.19767828 C39.8635608,5.37755666 40.5978026,6.16756219 41.7807477,6.16756219 C42.7903301,6.16756219 43.6163521,5.64431177 43.9426817,4.813267 L41.8827257,4.813267 L42.0662861,3.55131012 L45.9210553,3.55131012 C45.5641323,6.11626313 43.9528795,7.58341625 41.556396,7.58341625 Z" id="SWAG"></path>
            </g>
        </g>
    </g>
</svg>