<?xml version="1.0" encoding="UTF-8"?>
<svg width="125px" height="40px" viewBox="0 0 125 40" version="1.1" xmlns="http://www.w3.org/2000/svg" xmlns:xlink="http://www.w3.org/1999/xlink">
    <!-- Generator: Sketch 49 (51002) - http://www.bohemiancoding.com/sketch -->
    <title>logo mk2swag</title>
    <desc>Created with Sketch.</desc>
    <defs></defs>
    <g id="-----v4" stroke="none" stroke-width="1" fill="none" fill-rule="evenodd">
        <g id="Home" transform="translate(-898.000000, -80.000000)" fill="#1C1B30" fill-rule="nonzero">
            <g id="Group-6" transform="translate(358.000000, 80.000000)">
                <g id="logo-mk2swag" transform="translate(540.000000, 0.000000)">
                    <path d="M38.0059538,20.9388785 C37.4251421,21.5257944 36.8372108,22.0831776 36.2425346,22.6114019 C35.3518319,23.4786916 34.4787408,24.3325234 33.6240109,25.1714019 C32.7681568,26.0102804 31.9014359,26.8674766 31.0223494,27.74 C30.9346656,27.8330841 30.8454829,27.8820561 30.7544266,27.8854206 C30.604165,27.951215 30.4598989,27.9493458 30.3197547,27.8805607 C30.1799852,27.811028 30.0323466,27.7497196 29.8783378,27.6966355 C29.721706,27.613271 29.5736927,27.5224299 29.4324243,27.4229907 C29.291156,27.3246729 29.1412691,27.2185047 28.9842626,27.1056075 C28.7957798,26.9639252 28.5979292,26.8076636 28.3922094,26.6368224 C28.1864897,26.4659813 27.9736503,26.311215 27.7536913,26.1706542 C27.7484453,26.051028 27.7431992,25.9314019 27.7379532,25.8121495 C27.7008562,25.6641121 27.6854928,25.493271 27.6926124,25.297757 C27.6989826,25.1029907 27.6986079,24.9157009 27.6903641,24.7366355 C27.8964586,23.5149533 28.1040519,22.2936449 28.3123947,21.0723364 C28.1947335,21.1979439 28.0845666,21.3063551 27.9815194,21.4009346 C27.877348,21.495514 27.7518177,21.6065421 27.6041792,21.7317757 C27.5161206,21.8256075 27.4284368,21.9269159 27.3411277,22.0353271 C27.2541933,22.1448598 27.1507714,22.2457944 27.0327354,22.3411215 C26.8858463,22.497757 26.7539458,22.6383178 26.6374088,22.7628037 C26.5201223,22.8876636 26.3885966,23.028972 26.2428316,23.1848598 C26.0678387,23.3725234 25.9509269,23.5127103 25.8943446,23.6050467 C25.4975191,24.3119626 25.1115604,25.0334579 24.7338454,25.7699065 C24.3565052,26.5063551 23.9874088,27.2428037 23.6276803,27.9792523 C23.6003259,28.0401869 23.5785923,28.071215 23.5639784,28.0723364 C23.5482402,28.0730841 23.5261319,28.0891589 23.4980281,28.1205607 C23.3181639,28.188972 23.1090717,28.1168224 22.8696274,27.904486 C22.6305578,27.6921495 22.4615604,27.5284112 22.3645086,27.4136449 C22.0448749,27.1306542 21.769083,26.8147664 21.5375078,26.4674766 C21.3775035,26.3265421 21.2943163,26.2102804 21.2898197,26.1209346 C21.2216212,25.9751402 21.212628,25.8035514 21.2632148,25.6057944 C21.314551,25.408785 21.380876,25.2181308 21.4629391,25.0338318 C21.6544195,24.6334579 21.8590151,24.2379439 22.0669832,23.8439252 C21.4355847,24.4947664 20.8030621,25.1403738 20.1660428,25.7758879 C19.3090646,26.6300935 18.4637026,27.5007477 17.6299569,28.3863551 C17.5437719,28.4813084 17.4553387,28.531028 17.3642824,28.5362617 C17.2155197,28.6042991 17.0705041,28.6054206 16.9296104,28.5385047 C16.7887168,28.4715888 16.6403288,28.4128972 16.4848211,28.3620561 C16.3270652,28.2809346 16.177553,28.1930841 16.0347858,28.0962617 C15.8916438,27.9998131 15.7402581,27.8962617 15.581378,27.7859813 C15.3591707,27.6495327 15.1437083,27.4973832 14.9353655,27.3299065 C14.726648,27.1628037 14.5265491,27.0102804 14.3346939,26.8715888 C14.236518,26.7586916 14.1833081,26.6416822 14.1761885,26.5220561 C14.0926266,26.1672897 14.1166085,25.8065421 14.2473848,25.4390654 C14.3028429,25.3459813 14.365046,25.2293458 14.4332445,25.091028 C14.5010683,24.9515888 14.5617725,24.8211215 14.6161065,24.697757 C14.7764854,24.2992523 14.9990674,23.9261682 15.2853514,23.5792523 C15.5929942,23.0820561 15.8942668,22.5852336 16.1880451,22.0884112 C16.4821981,21.5927103 16.7995836,21.0943925 17.1405762,20.5960748 C17.2529914,20.4095327 17.4444719,20.1224299 17.7157671,19.7321495 C17.9863129,19.3429907 18.2800912,18.9448598 18.5978514,18.537757 C18.9148621,18.1317757 19.2176336,17.74 19.5069153,17.3654206 C19.7950728,16.991215 20.0120341,16.7097196 20.1574243,16.5220561 C19.3881299,17.1915888 18.579865,17.9542056 17.7330041,18.8099065 C16.8857685,19.6663551 16.0441537,20.5680374 15.2085344,21.5168224 C14.3721656,22.464486 13.5627764,23.413271 12.7788681,24.3605607 C11.994585,25.3082243 11.2927397,26.1785047 10.6714586,26.9676636 C10.5328132,27.1871028 10.3720595,27.4140187 10.1891975,27.651028 C10.0059608,27.8880374 9.81373091,28.1029907 9.61363193,28.2958879 C9.58440399,28.3280374 9.54243566,28.3762617 9.48547865,28.4394393 C9.42852163,28.5037383 9.36369556,28.5672897 9.29249929,28.6323364 C9.22017887,28.697757 9.14785846,28.7545794 9.07516332,28.8042991 C9.00209347,28.8543925 8.94925834,28.8652336 8.91703266,28.8371963 C8.81960619,28.7542056 8.71431066,28.6637383 8.60077135,28.5665421 C8.48685732,28.4693458 8.38081236,28.3646729 8.28188702,28.251028 C8.14923713,28.1104673 8.01621253,27.9545794 7.88243849,27.7837383 C7.74866445,27.613271 7.61526513,27.457757 7.48336468,27.3164486 C7.41366728,27.2020561 7.4054235,27.0824299 7.45825863,26.9586916 C7.41554087,26.7814953 7.41104426,26.6095327 7.44551824,26.4424299 C7.47999222,26.2760748 7.52008696,26.0850467 7.56692661,25.8719626 C7.62350891,25.8084112 7.6778429,25.7145794 7.73105274,25.5908411 C7.78426258,25.4678505 7.82285846,25.3598131 7.84684036,25.2682243 C7.95438419,25.0517757 8.06342689,24.8484112 8.17321903,24.6611215 C8.28301117,24.4738318 8.40816671,24.2854206 8.5494351,24.0962617 C8.85520433,23.6259813 9.16022412,23.1411215 9.46561864,22.6413084 C9.77026372,22.1418692 10.0745341,21.6271028 10.3795539,21.097757 C10.4623664,20.9429907 10.6437295,20.6682243 10.9270157,20.2753271 C11.2095525,19.8828037 11.5067032,19.466729 11.8195921,19.0271028 C12.1306073,18.5882243 12.4367513,18.1646729 12.7361503,17.7564486 C13.0351746,17.3485981 13.2423932,17.0663551 13.3563073,16.908972 C12.6222363,17.5538318 11.8345807,18.3145794 10.9959637,19.1919626 C10.1569719,20.0700935 9.32285139,20.9796262 8.49397695,21.9190654 C7.66435308,22.86 6.85383979,23.8072897 6.06281179,24.7631776 C5.27103436,25.7183178 4.56956377,26.6091589 3.95765059,27.4334579 C3.7399399,27.8095327 3.47651372,28.1740187 3.16699731,28.5265421 C3.05458215,28.6551402 2.94141756,28.7841121 2.82937712,28.9119626 C2.71696196,29.0405607 2.60154907,29.1396262 2.48501202,29.2076636 C2.47227163,29.2386916 2.45915653,29.2697196 2.44641615,29.3007477 C2.45091275,29.3598131 2.43779765,29.3915888 2.40744556,29.3938318 C2.37746818,29.3957009 2.34749081,29.4128972 2.31976174,29.4454206 C2.17174844,29.5164486 1.96902644,29.4491589 1.70897271,29.2442991 C1.44816954,29.0394393 1.26793057,28.8813084 1.16750636,28.768785 C1.00375495,28.6315888 0.847497879,28.4786916 0.696112132,28.3100935 C0.545101103,28.142243 0.402708569,27.9882243 0.269683965,27.8484112 C0.234460549,27.7915888 0.198862415,27.7343925 0.164388433,27.6768224 C0.129165017,27.62 0.0939416007,27.5628037 0.0590929016,27.5048598 C-0.013227517,27.3605607 -0.0192229921,27.188972 0.0411064762,26.9885981 C0.101810662,26.7893458 0.155395221,26.5975701 0.202984304,26.4136449 C0.645900028,25.4192523 1.1465222,24.4435514 1.70410139,23.4857944 C2.26130585,22.5291589 2.83012656,21.5788785 3.4086899,20.6368224 C4.10304087,19.5957009 4.83373939,18.5841121 5.60041077,17.6001869 C6.36633272,16.6166355 7.13450297,15.6196262 7.90492152,14.6076636 C8.04506575,14.3885981 8.20244697,14.1829907 8.37631575,13.9915888 C8.5494351,13.7998131 8.72292916,13.5938318 8.89417492,13.3725234 C9.00808894,13.2151402 9.17408866,13.0170093 9.39179935,12.777757 C9.60951004,12.5388785 9.84295885,12.4259813 10.0936447,12.4398131 C10.2169266,12.4319626 10.3285923,12.4626168 10.4263935,12.5306542 C10.5241947,12.5994393 10.637734,12.6742056 10.7677609,12.7560748 C10.9281398,12.8353271 11.0971373,12.9224299 11.2747533,13.0158879 C11.4516198,13.1097196 11.6209919,13.2125234 11.7839939,13.3209346 C11.880671,13.375514 11.9780974,13.4439252 12.076648,13.5272897 C12.1751987,13.611028 12.1976817,13.7299065 12.145596,13.8824299 C12.1178669,13.9448598 12.083393,13.9990654 12.0391763,14.0465421 C11.9957091,14.0936449 11.9586121,14.1347664 11.9305083,14.1657944 C10.395292,15.9411215 8.99684743,17.7411215 7.73180218,19.5654206 C8.31148968,19.0166355 8.90166926,18.4820561 9.5019662,17.9631776 C10.101139,17.4446729 10.711928,16.9553271 11.3335839,16.4958879 C12.2186659,15.8102804 13.1063709,15.1190654 13.9955748,14.4211215 C14.8847787,13.7242991 15.7616169,13.0506542 16.6272137,12.4024299 C16.6822971,12.2798131 16.7853443,12.1766355 16.9359806,12.0928972 C17.0866169,12.0099065 17.2395016,11.9631776 17.3953839,11.9549533 C17.5501421,11.9459813 17.6771712,11.984486 17.7749724,12.0682243 C17.934602,12.1493458 18.1358251,12.2585047 18.3763935,12.3945794 C18.6173367,12.5317757 18.8357968,12.6921495 19.0321486,12.8760748 C19.2285004,13.0603738 19.3630239,13.255514 19.4364685,13.4603738 C19.5091636,13.666729 19.4743149,13.8786916 19.3311729,14.095514 C19.121706,14.2570093 18.9302255,14.4315888 18.7544832,14.6203738 C18.5787408,14.8099065 18.4029984,14.9990654 18.2276308,15.1885981 C17.880268,15.6274766 17.5160428,16.0588785 17.1387026,16.4846729 C16.7602383,16.9104673 16.3832728,17.3590654 16.0096797,17.8297196 C16.3622886,17.5100935 16.7156469,17.2125234 17.0716283,16.937757 C17.4272349,16.6633645 17.7824668,16.3811215 18.1380734,16.0921495 C18.9980493,15.415514 19.875637,14.7325234 20.7708364,14.0416822 C21.6656611,13.3523364 22.5638582,12.6857944 23.4654277,12.0431776 C23.5212606,11.9209346 23.6250573,11.8185047 23.7771924,11.7358879 C23.9285782,11.6540187 24.0660994,11.6099065 24.1908802,11.6042991 C24.4074668,11.5938318 24.5652227,11.631215 24.6626492,11.7164486 C24.7904277,11.8001869 24.9747886,11.9119626 25.2146076,12.0499065 C25.4540519,12.1893458 25.6710132,12.351215 25.8662408,12.5366355 C26.060719,12.7228037 26.1933689,12.9190654 26.2656893,13.1246729 C26.3365109,13.3317757 26.2994139,13.5429907 26.1543983,13.7586916 C25.8557487,14.0117757 25.573212,14.2783178 25.3075375,14.5605607 C25.0422377,14.8424299 24.7930508,15.1534579 24.5618503,15.4936449 C23.3784934,16.6573832 22.2989331,17.9385047 21.3235443,19.3366355 C21.2665872,19.4293458 21.2017612,19.5224299 21.1301902,19.6158879 C21.0578698,19.7093458 20.9930437,19.8031776 20.9368361,19.895514 C20.4748098,20.488785 20.0172801,21.1568224 19.5664953,21.8996262 C19.3956243,22.1493458 19.2314982,22.3968224 19.0771147,22.6450467 C18.921607,22.8936449 18.7739685,23.1403738 18.6345737,23.3878505 C18.4041226,23.6697196 18.2542357,23.9930841 18.18229,24.3568224 C18.1841636,24.3863551 18.1654277,24.4547664 18.1249583,24.5620561 C18.0848635,24.6693458 18.0803669,24.7220561 18.110719,24.7201869 C18.1260824,24.7190654 18.1410711,24.7183178 18.1564345,24.7175701 C18.1867866,24.7157009 18.2677255,24.6514019 18.3985018,24.5242991 C18.5296529,24.3975701 18.6750431,24.2614953 18.8357968,24.1183178 C18.995801,23.9747664 19.1494351,23.8386916 19.2963242,23.711215 C19.4424639,23.5841121 19.5451365,23.5033645 19.6050912,23.4700935 C20.1349413,23.0521495 20.641559,22.6214953 21.1253189,22.1766355 C21.608704,21.7328972 22.1156964,21.2876636 22.6474201,20.8413084 C23.0584849,20.4614953 23.4564345,20.0981308 23.8401449,19.7497196 C24.2231059,19.4024299 24.6221797,19.0540187 25.0377411,18.7048598 C25.2595737,18.5153271 25.4739119,18.3340187 25.6882501,18.1530841 C26.1386602,17.5478505 26.5961899,16.9504673 27.0668347,16.3672897 C27.8424993,15.4050467 28.6294054,14.4285981 29.4256794,13.4375701 C30.4598989,12.1986916 31.5079829,10.9971963 32.5706809,9.8353271 C33.6322547,8.67383178 34.707693,7.52130841 35.7951223,6.37813084 C36.2770086,5.85401869 36.7697617,5.33626168 37.2700092,4.8271028 C37.7710061,4.31794393 38.2491452,3.80205607 38.7040519,3.28018692 C39.1304801,2.84878505 39.5422943,2.42523364 39.9391198,2.01028037 C40.3351958,1.5953271 40.7481342,1.17327103 41.1775601,0.742616822 C41.2543771,0.665981308 41.3311941,0.589345794 41.4080112,0.512336449 C41.5942456,0.417383178 41.7984665,0.412149533 42.0210485,0.496635514 C42.1799286,0.582616822 42.3804023,0.697383178 42.6194719,0.840560748 C42.8592909,0.984859813 43.0755027,1.15158879 43.268482,1.3411215 C43.4614614,1.53140187 43.599732,1.73028037 43.6836687,1.93700935 C43.7661065,2.14448598 43.7320072,2.34 43.5791226,2.52242991 C42.5063073,3.62485981 41.4458576,4.70635514 40.3959,5.76728972 C39.3463172,6.82859813 38.3091,7.91383178 37.2849979,9.02299065 C36.3174781,9.98074766 35.3705677,10.9628037 34.4435174,11.9672897 C33.5160923,12.9725234 32.6242654,14.015514 31.7687861,15.095514 C31.6526237,15.3097196 31.5068587,15.5100935 31.3281186,15.6962617 C31.1497533,15.8828037 30.987126,16.0685981 30.8402368,16.2540187 C31.2925205,15.9665421 31.729066,15.6880374 32.1524965,15.4173832 C32.5748027,15.1474766 33.0128471,14.8543925 33.4655055,14.5385047 C34.3438426,13.9983178 35.2233039,13.4659813 36.1057629,12.9429907 C36.9878471,12.4207477 37.8710556,11.8917757 38.7565123,11.3568224 C38.9157671,11.502243 39.105374,11.6158879 39.3257077,11.6992523 C39.4516127,11.7852336 39.5947547,11.8928972 39.7540095,12.0233645 C39.9128896,12.1534579 40.0410428,12.2921495 40.1380946,12.4390654 C40.2355211,12.5863551 40.2703698,12.742243 40.2445143,12.9071028 C40.2175346,13.0727103 40.0976251,13.2185047 39.8847858,13.3437383 C39.2144167,13.751215 38.5444224,14.1388785 37.8755522,14.5026168 C37.2055578,14.8674766 36.521699,15.2409346 35.8236008,15.6233645 C35.1865816,15.9743925 34.5510612,16.3553271 33.9174145,16.7665421 C33.6757219,16.9257944 33.4347787,17.0835514 33.1938355,17.2416822 C32.9525177,17.4009346 32.7119492,17.5590654 32.4713808,17.7175701 C32.3953132,17.7500935 32.3196203,17.7829907 32.2439275,17.815514 C32.1363836,18.2390654 32.0434538,18.631215 31.9655126,18.9934579 C31.8871967,19.3553271 31.8238695,19.7328972 31.778154,20.1231776 C31.7507996,20.2140187 31.6908449,20.4633645 31.5997886,20.8708411 C31.5076082,21.2786916 31.4251704,21.7078505 31.3509764,22.1601869 C31.2767824,22.6117757 31.2396854,23.0330841 31.2400601,23.4211215 C31.2396854,23.8106542 31.3172518,24.0319626 31.4727595,24.0857944 C31.4761319,24.1751402 31.5218474,24.1736449 31.6102807,24.0805607 C31.6402581,24.0790654 31.7223211,24.0162617 31.8553457,23.891028 C31.9883703,23.7669159 32.1360089,23.6334579 32.2993856,23.4928972 C32.4616382,23.3515888 32.6175205,23.2188785 32.7666579,23.093271 C32.9146712,22.968785 33.0188426,22.8891589 33.0791721,22.8573832 C33.5846656,22.4499065 34.0984029,22.0274766 34.6203839,21.5893458 C35.1416155,21.1523364 35.656477,20.7160748 36.1645935,20.2798131 C36.5820284,19.9071028 37.0005875,19.5497196 37.4213949,19.2069159 C37.8410782,18.8648598 38.2611362,18.5228037 38.682693,18.1807477 C38.9213879,17.9343925 39.1836899,17.6943925 39.4703486,17.4618692 C39.7558831,17.228972 40.0650247,16.9885981 40.3981483,16.7396262 C40.4581031,16.6786916 40.5409156,16.6237383 40.6480847,16.5758879 C40.7545044,16.5280374 40.8395652,16.5482243 40.9043913,16.6364486 C40.9662196,16.6648598 41.0295468,16.7078505 41.0932487,16.7654206 C41.1562012,16.824486 41.218779,16.8820561 41.2828556,16.94 C41.347307,17.0282243 41.4038893,17.1321495 41.4529772,17.2495327 C41.5024399,17.3680374 41.4971939,17.4581308 41.4372391,17.5194393 C41.3772844,17.6106542 41.332693,17.6723364 41.3030904,17.7026168 C41.2427609,17.7642991 41.1831809,17.8256075 41.1236008,17.8865421 C41.0632714,17.9485981 41.0029419,18.0099065 40.9433618,18.071215 C40.7327708,18.2558879 40.5300488,18.4495327 40.3359453,18.648785 C40.1414671,18.8495327 39.9391198,19.0416822 39.7296529,19.2271028 C39.1604574,19.7814953 38.5863907,20.3530841 38.0059538,20.9388785 Z M52.7258194,17.0285607 C51.165497,17.9459439 49.6332784,18.8521121 48.1287889,19.7470654 C46.6242993,20.6427664 45.0853358,21.528 43.5145214,22.4027664 C44.1253104,22.3283738 44.7076209,22.3149159 45.2595793,22.3623925 C47.0971924,22.3526729 48.9205663,22.4158505 50.7297009,22.5522991 C52.5377114,22.6894953 54.3610853,22.8696822 56.1986984,23.0932336 C56.2594026,23.0629533 56.297249,23.0554766 56.3129871,23.0696822 C56.3279758,23.0850093 56.366197,23.0917383 56.4280253,23.0913645 C56.5202057,23.1508037 56.574165,23.2319252 56.5902779,23.336972 C56.6063907,23.4420187 56.6153839,23.523514 56.6153839,23.5829533 C56.6165081,23.7033271 56.6183816,23.9051963 56.6202552,24.1885607 C56.6228783,24.4734206 56.608639,24.7575327 56.5812846,25.041271 C56.5528061,25.3261308 56.5010952,25.5807103 56.4276506,25.8053832 C56.3527072,26.0304299 56.2395426,26.1433271 56.0874074,26.1448224 C54.1014062,25.5937944 52.0895496,25.1399626 50.0537111,24.7837009 C48.0174979,24.4285607 45.9456865,24.3795888 43.8438978,24.6386542 C42.3202977,24.8248224 40.8630225,25.1627664 39.4739458,25.6521121 C38.0844945,26.1418318 36.7171514,26.7840748 35.374165,27.5780935 C35.3438129,27.579215 35.3130861,27.5803364 35.282734,27.5814579 C35.1905536,27.5541682 35.1395921,27.4068785 35.1302241,27.1377196 C35.1208562,26.8685607 35.1328471,26.5620187 35.1665717,26.2162243 C35.2002962,25.8711776 35.2422646,25.5556636 35.2943503,25.2693084 C35.3449371,24.9837009 35.3692937,24.7949159 35.3659212,24.7059439 C35.3617993,24.5866916 35.3880296,24.4659439 35.4453613,24.3440748 C35.5589006,24.1007103 35.7518799,23.9149159 36.0231752,23.7855701 C36.0228005,23.7706168 36.022051,23.7556636 36.0216763,23.7407103 C36.036665,23.7403364 36.0520284,23.7395888 36.0670171,23.739215 C36.2491297,23.6737944 36.4214996,23.5926729 36.5874993,23.4977196 C36.7520001,23.4023925 36.9251195,23.3074393 37.1061079,23.2113645 C37.347051,23.1145421 37.581624,23.0023925 37.8072038,22.8749159 C38.0331582,22.7489346 38.2658576,22.6218318 38.5079249,22.4943551 C39.1100954,22.1474393 39.7051464,21.801271 40.2938271,21.4551028 C40.8825078,21.1093084 41.4786828,20.7642617 42.0842258,20.419215 C43.6269365,19.5119252 45.143417,18.5799626 46.6336673,17.6222056 C48.1235428,16.6655701 49.6190392,15.6965981 51.1197815,14.7175327 C52.0681908,14.1059439 53.0121034,13.4801495 53.9503952,12.8416449 C54.8883124,12.203514 55.8198593,11.536972 56.7465349,10.841271 C57.5499286,10.3268785 58.3544464,9.78407477 59.1612125,9.21173832 C59.9668545,8.64014953 60.7443927,8.05472897 61.4915788,7.45435514 C61.8336956,7.1844486 62.1454603,6.93024299 62.4261234,6.69024299 C62.7067866,6.45136449 63.018926,6.21211215 63.3629164,5.97248598 C63.6132275,5.76351402 63.8466763,5.56201869 64.0666353,5.36762617 C64.2850954,5.17398131 64.5046797,4.95715888 64.7246387,4.71828037 C64.7553655,4.65921495 64.8340561,4.56127103 64.9599611,4.42706542 C65.0847419,4.29248598 65.2027779,4.14370093 65.3133194,3.97921495 C65.4231116,3.81585047 65.5021769,3.65884112 65.5493913,3.50893458 C65.5969803,3.3597757 65.589486,3.22519626 65.5269082,3.10519626 C65.3080734,2.80575701 65.0187917,2.58145794 64.6583138,2.43005607 C64.2974611,2.28052336 63.9058816,2.1751028 63.4820765,2.11491589 C63.0582714,2.0551028 62.6265971,2.04014953 62.1874286,2.07005607 C61.7478853,2.10108411 61.3551817,2.13173832 61.0108166,2.16201869 C60.4461178,2.22370093 59.8656809,2.33024299 59.2702552,2.48201869 C58.6748296,2.63491589 58.1112549,2.78743925 57.5791565,2.94033645 C56.9526294,3.12351402 56.3358449,3.33809346 55.7269294,3.58257944 C55.1183887,3.82781308 54.5019789,4.07229907 53.8784495,4.31865421 C53.3482247,4.56463551 52.8123791,4.8397757 52.2694139,5.14557009 C51.726074,5.45211215 51.1913525,5.77398131 50.6652496,6.11005607 C49.7359509,6.63304673 48.8257629,7.29136449 47.936559,8.08500935 C47.6603924,8.32949533 47.38535,8.60426168 47.111057,8.90818692 C46.836764,9.21323364 46.5868276,9.54669159 46.3604984,9.91005607 C46.1349187,10.2737944 45.9561786,10.6446355 45.8242781,11.0207103 C45.6923777,11.3975327 45.6612762,11.7646355 45.7309736,12.1216449 C45.7725672,12.6296822 45.9992711,13.0891215 46.4107105,13.4988411 C46.5051393,13.5859439 46.537365,13.6610841 46.5085117,13.721271 C46.4781596,13.7818318 46.4017173,13.8207103 46.2784354,13.8379065 C46.1547787,13.8562243 46.0622236,13.8648224 46.0003952,13.8663178 C45.6290505,13.8741682 45.3184099,13.8214579 45.0680988,13.7066916 C44.9114671,13.6506168 44.7323522,13.5874393 44.5296302,13.516785 C44.3261588,13.4472523 44.1459198,13.3395888 43.9881639,13.1930467 C43.4811715,12.7265047 43.1724046,12.1504299 43.0626124,11.4648224 C42.9884184,10.9885607 43.0311362,10.523514 43.1915151,10.0704299 C43.3515194,9.61809346 43.5669818,9.17211215 43.8367781,8.73136449 C44.1065745,8.29173832 44.4168404,7.888 44.7675757,7.52127103 C45.1175615,7.15454206 45.4619266,6.81809346 45.7995468,6.5115514 C46.3204037,6.05211215 46.8510033,5.6233271 47.3909707,5.22370093 C47.9305635,4.82482243 48.5106257,4.45585047 49.1315321,4.11566355 C49.7513143,3.71678505 50.3958279,3.36239252 51.066197,3.05323364 C51.7358166,2.74519626 52.41368,2.43678505 53.1009113,2.12949533 C54.3809453,1.60575701 55.6969521,1.1444486 57.045934,0.745570093 C58.3945411,0.347439252 59.7618842,0.101457944 61.1472137,0.008 C62.1218531,-0.0230280374 63.1684382,0.0356635514 64.2854702,0.186691589 C65.401378,0.33846729 66.3362974,0.790429907 67.0868559,1.54108411 C67.149059,1.60201869 67.2108873,1.67641121 67.2738398,1.7668785 C67.3360428,1.8562243 67.3974965,1.96201869 67.4608237,2.08164486 C68.0682402,2.95229907 68.6734085,3.8233271 69.2770779,4.6951028 C69.3700078,4.84575701 69.3838723,5.00314019 69.3205451,5.16650467 C69.2564685,5.33061682 69.1687846,5.50183178 69.0586178,5.68052336 C68.9473268,5.85921495 68.8289161,6.02295327 68.7033859,6.17136449 C68.5774809,6.3208972 68.4673141,6.43902804 68.37326,6.528 C68.1218248,6.73585047 67.8628952,6.95865421 67.5972207,7.19641121 C67.3300474,7.43454206 67.0718672,7.65771963 66.8219309,7.86519626 C66.477191,8.16314019 66.1257063,8.43865421 65.767102,8.69136449 C65.4081229,8.9444486 65.0570129,9.20500935 64.7148961,9.47342056 C62.8765335,10.6962243 61.0160626,11.9096822 59.1331087,13.1145421 C58.0831512,13.7773458 57.0283223,14.4274393 55.9682473,15.0648224 C54.9077977,15.7018318 53.8267385,16.3571589 52.7258194,17.0285607 Z M73.5970822,15.3337196 C73.2437238,16.1359626 72.8693814,16.9303551 72.4729306,17.7168972 C72.0761051,18.5038131 71.6582954,19.2682991 71.2187521,20.0099813 C70.6851548,20.8709159 70.0998466,21.6933458 69.4643262,22.4787664 C68.8276817,23.2649346 68.125087,23.9606355 67.3572914,24.5669907 C66.5887465,25.1737196 65.7396373,25.6466168 64.8080904,25.9853084 C63.8761687,26.324 62.8633081,26.4768972 61.7672603,26.446243 C61.3101053,26.4458692 60.8304673,26.3703551 60.3279716,26.2211963 C59.8251011,26.0716636 59.4215307,25.7890467 59.115012,25.3703551 C58.8710711,24.9823178 58.7552835,24.5789533 58.7695228,24.1598879 C58.783762,23.7411963 58.897676,23.3225047 59.1105154,22.9026916 C59.3848084,22.2148411 59.8052411,21.5714766 60.3718135,20.9725981 C60.9387606,20.3744673 61.4843488,19.8219439 62.0078288,19.3139065 C62.1303613,19.1643738 62.2772504,19.0608224 62.4466226,19.0010093 C62.6152453,18.9419439 62.7924866,18.9565234 62.9764727,19.0469907 C63.0686531,19.1075514 63.1147434,19.1815701 63.1143686,19.2716636 C63.2365264,19.361757 63.3283322,19.4963364 63.3894111,19.6761495 C63.3894111,19.7064299 63.3894111,19.7363364 63.3890363,19.766243 C63.3890363,19.7957757 63.3890363,19.8256822 63.3890363,19.8555888 C63.3890363,19.8858692 63.4036503,19.9004486 63.4347518,19.9008224 C63.2496415,20.1991402 63.0562875,20.512785 62.8565632,20.8410093 C62.6557148,21.1699813 62.4638596,21.4982056 62.2794987,21.8264299 C62.1562168,22.0660561 62.0325601,22.3277383 61.9104023,22.6111028 C61.7874951,22.8955888 61.6953146,23.1565234 61.6342357,23.3957757 C61.5720327,23.6051215 61.5109538,23.9045607 61.4495001,24.2925981 C61.3876718,24.6813832 61.4637394,24.9658692 61.6777029,25.1449346 C61.8905423,25.2656822 62.1191198,25.2735327 62.3641848,25.1688598 C62.607751,25.0653084 62.8063511,24.952785 62.9599852,24.8339065 C63.3571854,24.5957757 63.678318,24.3583925 63.9245072,24.119514 C64.4138879,23.732972 64.8137111,23.3314766 65.1224781,22.9139065 C65.7062875,22.319514 66.2548734,21.7026916 66.765613,21.0630654 C67.2767272,20.4245607 67.7657332,19.7632523 68.2333802,19.079514 C68.8569096,18.128486 69.4830621,17.1554019 70.1122122,16.1606355 C70.740613,15.1658692 71.3412846,14.1643738 71.9127284,13.1554019 C69.9698197,14.7733458 68.038902,16.3983925 66.1192258,18.0301682 C66.0266707,18.0899813 65.9266212,18.0514766 65.8198268,17.9161495 C65.7122829,17.7808224 65.6290957,17.684 65.5676421,17.6230654 C65.5058138,17.532972 65.4376152,17.4054953 65.3619224,17.2406355 C65.2858548,17.0761495 65.3248254,16.964 65.4795836,16.9045607 C67.8800219,14.9897944 70.2973225,13.0858692 72.7314854,11.192785 C73.8829914,9.96848598 75.0393686,8.74680374 76.2013667,7.52736449 C76.5183774,7.23465421 76.8826025,6.97297196 77.2936673,6.74119626 C77.4191975,6.68437383 77.5687097,6.63465421 77.7414543,6.59315888 C77.9134495,6.55241121 78.0622122,6.56213084 78.1858689,6.62493458 C78.2469478,6.68624299 78.3005324,6.7251215 78.347372,6.74082243 C78.393837,6.75727103 78.4470468,6.79540187 78.5085004,6.85633645 C78.6617598,6.9793271 78.7914119,7.11727103 78.8978316,7.2686729 C79.0031271,7.42119626 79.1324046,7.57297196 79.2849145,7.72586916 C79.4666523,7.96998131 79.6641283,8.19876636 79.8773423,8.41297196 C79.9680239,8.53484112 80.0654504,8.67166355 80.1714953,8.82381308 C80.2764161,8.97633645 80.3116396,9.12624299 80.2775403,9.27465421 C80.2097165,9.48250467 80.0264798,9.66530841 79.7274555,9.82269159 C79.4276817,9.98082243 79.184865,10.0873645 78.9967569,10.1426916 C78.5564642,10.3423178 78.0554673,10.5116636 77.4937663,10.6488598 C77.1179249,10.7909159 76.7499526,10.9254953 76.3905988,11.052972 C76.0304956,11.1808224 75.6790109,11.3168972 75.3350205,11.4597009 C75.0135132,12.0821308 74.7392202,12.6757757 74.512891,13.2398879 C74.2217357,13.9830654 73.9159665,14.6810093 73.5970822,15.3337196 Z M94.7250615,15.7192897 C93.5952892,16.8392897 92.4246727,17.9454579 91.2135867,19.0366729 C89.8409976,20.3020935 88.4466749,21.5245234 87.0291198,22.7047103 C85.6115646,23.8860187 84.1265604,24.9779813 82.574107,25.9820935 C82.4796783,26.0695701 82.3721345,26.1110654 82.2507261,26.1077009 C82.0959679,26.1641495 81.9442074,26.160785 81.7935711,26.0957383 C81.6421854,26.0321869 81.4919238,25.9533084 81.3420369,25.8594766 C81.1902764,25.7962991 81.0407643,25.7103178 80.8908774,25.6011589 C80.7406158,25.4931215 80.6057176,25.3776075 80.4876817,25.2549907 C80.2774654,25.1002243 80.0676237,24.9383551 79.8581568,24.7682617 C79.6483152,24.5992897 79.4242343,24.4067664 79.1844153,24.1914393 C79.1544379,24.1615327 79.1323296,24.123028 79.1184651,24.0777944 C79.1034764,24.0329346 79.0813681,23.9955514 79.0521401,23.9641495 C78.9082487,23.5424673 78.9326053,23.1693832 79.1237111,22.8441495 C79.1915349,22.5469533 79.2739727,22.3088224 79.3699003,22.132 C79.4354758,21.9533084 79.5006766,21.7761121 79.5662521,21.5977944 C79.6314529,21.4202243 79.7127665,21.2579813 79.8079447,21.1103178 C78.9914359,21.8691963 78.1854193,22.6516262 77.3887705,23.4568598 C76.5921217,24.263215 75.7898522,25.0478879 74.9842103,25.8108785 C74.8909057,25.898729 74.7829871,25.9417196 74.6615788,25.9394766 C74.5079447,25.9970467 74.3558095,25.9951776 74.2044238,25.9316262 C74.0526633,25.8695701 73.916641,25.7925607 73.7963568,25.700972 C73.6142442,25.6385421 73.4557388,25.5536822 73.3204659,25.4463925 C73.1848183,25.3394766 73.0413016,25.2250841 72.8906653,25.103215 C72.6793248,24.9506916 72.4676096,24.7910654 72.2566438,24.6228411 C72.0453033,24.4557383 71.8339628,24.2650841 71.6233717,24.0527477 C71.5930197,24.023215 71.5630423,23.9850841 71.5334396,23.9398505 C71.5030875,23.8946168 71.4731102,23.8568598 71.4431328,23.8262056 C71.3839275,23.616486 71.3644422,23.4146168 71.3824286,23.2198505 C71.4000403,23.0262056 71.4405098,22.8549907 71.5042117,22.7054579 C71.5679136,22.4673271 71.6319902,22.2886355 71.6953174,22.169757 C71.7286673,21.900972 71.8245949,21.6333084 71.9823508,21.3663925 C72.139732,21.0392897 72.3057318,20.7133084 72.4792258,20.3862056 C72.6527199,20.0602243 72.8187196,19.7334953 72.9779744,19.4067664 C73.4527411,18.487514 73.9825912,17.5981682 74.5682742,16.7405981 C75.1532077,15.8837757 75.7628726,15.0568598 76.3976435,14.2613458 C76.4916975,14.1734953 76.5868757,14.0785421 76.6816792,13.9749907 C76.7764826,13.8725607 76.8866495,13.7776075 77.0121797,13.6901308 C77.4565943,13.1312523 77.9182459,12.5865794 78.3948862,12.058729 C78.8719012,11.5305047 79.365029,10.9884486 79.8757685,10.4318131 C80.0020482,10.3155514 80.1624272,10.1248972 80.356156,9.8602243 C80.3868828,9.83143925 80.4273522,9.80228037 80.4745666,9.7731215 C80.5221557,9.74471028 80.5618757,9.70134579 80.5944761,9.64115888 C80.7211305,9.52527103 80.9081144,9.53013084 81.1546783,9.65499065 C81.2760867,9.74807477 81.4596981,9.88041121 81.7043884,10.0508785 C81.948704,10.2213458 82.1765321,10.407514 82.3893715,10.6067664 C82.6014614,10.807514 82.7513483,11.0138692 82.8390321,11.2247103 C82.9267159,11.4366729 82.9049823,11.6306916 82.7764543,11.8067664 C82.489421,12.0983551 82.2020129,12.3899439 81.9153542,12.6811589 C81.6290703,12.9731215 81.3420369,13.2800374 81.0553783,13.6019065 C80.5139119,14.1869533 79.9724456,14.8243364 79.4317286,15.5148037 C78.8898876,16.205271 78.3813964,16.889757 77.9047561,17.5671402 C77.4599668,18.1566729 77.0155522,18.8351776 76.5703882,19.6041495 C76.4115081,19.840785 76.2683661,20.0845234 76.141337,20.3361121 C76.0131837,20.5880748 75.8704164,20.8463925 75.7122858,21.1129346 C75.5537804,21.3499439 75.4432388,21.5420935 75.3795369,21.6901308 C75.3154603,21.8392897 75.266747,21.9645234 75.2348961,22.0688224 C75.2022957,22.1731215 75.2161602,22.2254579 75.2779885,22.2265794 C75.4923268,22.2011589 75.8483081,22.0056449 76.3459326,21.6411589 C76.8431823,21.2770467 77.3584184,20.8613458 77.8901421,20.3936822 C78.4218658,19.9271402 78.9247363,19.4736822 79.3961305,19.0362991 C79.8675247,18.5981682 80.1987747,18.2777944 80.3883816,18.0725607 C80.798697,17.6643364 81.2176308,17.2478879 81.6451831,16.8254579 C82.0723607,16.4026542 82.4924187,15.9880748 82.9057318,15.5798505 C83.2223678,15.2893832 83.5315095,15.0067664 83.8339062,14.7308785 C84.1351789,14.4549907 84.4143432,14.1716262 84.6710245,13.8796636 C85.1517866,13.3260187 85.6407926,12.7865794 86.138417,12.2635888 C86.6356667,11.7405981 87.1108081,11.2022804 87.5653401,10.6486355 C87.7871727,10.5062056 87.9644139,10.3177944 88.0974385,10.0826542 C88.0993121,10.023215 88.1637634,9.95031776 88.291542,9.86471028 C88.4504221,9.75106542 88.6523947,9.75742056 88.8978344,9.88527103 C89.0188681,9.9791028 89.2009806,10.1136822 89.4441721,10.2860187 C89.6869888,10.4591028 89.913318,10.6471402 90.1239091,10.8486355 C90.3341254,11.0516262 90.4821387,11.258729 90.5675742,11.4710654 C90.6530098,11.6837757 90.6144139,11.8770467 90.4532855,12.0505047 C90.1939812,12.340972 89.9196882,12.6299439 89.6304065,12.9185421 C89.3407501,13.207514 89.0510937,13.5121869 88.7614374,13.8310654 C88.2143503,14.4108785 87.6668884,15.0434019 87.1194266,15.7282617 C86.5708406,16.4138692 86.0559792,17.0938692 85.5733435,17.7663925 C85.1873848,18.2934953 84.808171,18.843028 84.4379504,19.4153645 C84.0669803,19.9880748 83.7353556,20.569757 83.4427015,21.1596636 C83.3467739,21.3069533 83.2575912,21.4538692 83.1774017,21.6011589 C83.0964628,21.7484486 83.0226435,21.9106916 82.9566933,22.0882617 C82.9555691,22.1185421 82.9387069,22.1776075 82.9057318,22.2665794 C82.8723819,22.3555514 82.8862465,22.4004112 82.9480748,22.4019065 C84.6961305,21.2243364 86.3490081,19.9211589 87.9070822,18.4923738 C89.4640321,17.0635888 90.9696458,15.6000374 92.4227991,14.0998505 C92.9080578,13.5798505 93.394066,13.0605981 93.8808237,12.5417196 C94.3675813,12.0224673 94.8558378,11.489757 95.3459679,10.9413458 C95.507471,10.7981682 95.6554843,10.6105047 95.7903825,10.376486 C95.8713214,10.3050841 95.9522603,10.2336822 96.0331992,10.1622804 C96.2250544,10.0512523 96.4420157,10.0605981 96.6863313,10.1906916 C96.8058661,10.2860187 96.9793602,10.4217196 97.2053146,10.5955514 C97.4308944,10.7705047 97.6474809,10.9604112 97.8565731,11.1637757 C98.0645411,11.3678879 98.2181752,11.5776075 98.3174753,11.7910654 C98.4164006,12.0048972 98.3991636,12.1992897 98.2672632,12.3727477 C97.0348183,13.4837757 95.8548339,14.5996636 94.7250615,15.7192897 Z M124.66253,13.7224299 C124.752837,13.9545794 124.728105,14.1702804 124.588336,14.3691589 C121.99192,16.5059813 119.546141,18.7695327 117.250624,21.1568224 C114.955481,23.5448598 112.924888,26.1841121 111.156598,29.068972 C110.750404,29.702243 110.375312,30.3385047 110.032072,30.9766355 C109.687706,31.6140187 109.359454,32.2678505 109.045441,32.9385047 C109.40442,33.0203738 109.763399,33.0951402 110.123503,33.1616822 C110.483606,33.2293458 110.827221,33.3029907 111.155848,33.384486 C111.276507,33.3915888 111.351076,33.411028 111.379929,33.4431776 C111.466489,33.5085981 111.521572,33.5942056 111.54518,33.7011215 C111.568412,33.8072897 111.578904,33.8902804 111.574782,33.9500935 C111.566913,34.068972 111.553798,34.2704673 111.535812,34.5545794 C111.517451,34.8379439 111.476981,35.1198131 111.413654,35.4009346 C111.349952,35.6813084 111.27351,35.9235514 111.185451,36.1280374 C111.096643,36.3314019 110.96212,36.4282243 110.781881,36.4170093 C110.309737,36.2368224 109.836094,36.0656075 109.363201,35.9018692 C108.889184,35.737757 108.414792,35.5811215 107.9404,35.4338318 C107.657863,36.1056075 107.39781,36.8016822 107.159864,37.5220561 C106.921169,38.2416822 106.691093,38.9553271 106.469635,39.6611215 C106.464389,39.751215 106.431414,39.7938318 106.371834,39.7904673 C106.216326,39.8708411 105.996367,39.7837383 105.710458,39.5276636 C105.424549,39.2715888 105.254053,39.0820561 105.201217,38.9598131 C104.828374,38.6390654 104.516984,38.2921495 104.266298,37.9190654 C104.208966,37.855514 104.159504,37.8009346 104.117161,37.7534579 C104.074818,37.706729 104.039219,37.6517757 104.012989,37.5908411 C103.962028,37.4084112 103.942917,37.2196262 103.953784,37.0259813 C103.964276,36.831215 104.003247,36.6614953 104.07182,36.5157009 C104.240068,36.1949533 104.40232,35.8671028 104.556704,35.5314019 C104.711087,35.1953271 104.873715,34.8525234 105.04496,34.5029907 C103.851861,34.1957009 102.66101,33.9680374 101.473156,33.8173832 C100.285303,33.666729 99.0536072,33.6207477 97.7803182,33.6816822 C96.2346097,33.7284112 94.7593481,33.9190654 93.3549081,34.2506542 C91.9515922,34.5811215 90.5595178,35.0371963 89.1816827,35.6162617 C89.1367166,35.6147664 89.0913758,35.613271 89.0460351,35.6114019 C88.9572271,35.577757 88.9167576,35.4271028 88.926875,35.1583178 C88.9366176,34.8891589 88.9695928,34.5986916 89.0258003,34.2865421 C89.0823826,33.9743925 89.1460846,33.6771963 89.2165314,33.3953271 C89.2877277,33.1130841 89.3244499,32.9284112 89.3274477,32.8383178 C89.3319443,32.7186916 89.366793,32.5998131 89.4312443,32.4828037 C89.5949958,32.1590654 89.8430585,31.9885981 90.1769316,31.9714019 C90.8817746,31.7575701 91.6225905,31.6065421 92.3990045,31.5183178 C93.1757933,31.428972 93.9450877,31.3564486 94.7057636,31.2988785 C96.4332098,31.3426168 98.1895093,31.4226168 99.9739126,31.5411215 C101.002137,31.6211215 102.035981,31.7347664 103.075072,31.8794393 C104.114163,32.0248598 105.158874,32.2016822 106.209207,32.4117757 C106.985621,31.0484112 107.807001,29.7403738 108.676345,28.4895327 C109.54419,27.2383178 110.462622,25.9841121 111.43164,24.7261682 C111.830339,24.2420561 112.229788,23.7508411 112.63111,23.2517757 C113.031683,22.7538318 113.448368,22.2641121 113.880792,21.782243 C113.622986,21.9448598 113.397407,22.1104673 113.202179,22.2775701 C113.006577,22.4442991 112.794112,22.6259813 112.566659,22.8207477 C111.687947,23.5736449 110.818603,24.3433645 109.958252,25.128785 C109.097902,25.9153271 108.21844,26.6719626 107.321367,27.3983178 C107.22544,27.4824299 107.131386,27.5220561 107.039955,27.5171963 C106.883698,27.5676636 106.739806,27.5515888 106.607531,27.4693458 C106.474881,27.386729 106.349351,27.3123364 106.23094,27.2457944 C106.083302,27.1474766 105.944282,27.0428037 105.813505,26.9299065 C105.682354,26.8181308 105.543334,26.6981308 105.398319,26.5699065 C105.193348,26.4091589 104.996247,26.2330841 104.808889,26.0431776 C104.620031,25.853271 104.439043,25.6786916 104.26405,25.5190654 C104.146389,25.4229907 104.061328,25.2988785 104.008493,25.1459813 C103.926804,24.9616822 103.928678,24.7751402 104.015987,24.584486 C104.102172,24.3953271 104.211589,24.228972 104.341991,24.0857944 C104.502745,23.9448598 104.649259,23.7878505 104.781534,23.615514 C104.913435,23.4431776 105.060324,23.2869159 105.221827,23.1456075 C105.453777,22.828972 105.685352,22.542243 105.914679,22.2854206 C106.144006,22.0285981 106.38982,21.7583178 106.652497,21.4734579 C106.943652,21.1590654 107.229936,20.8405607 107.515846,20.5220561 C107.392938,20.6241121 107.268907,20.7246729 107.146749,20.8274766 C106.515351,21.3613084 105.879456,21.8641121 105.238689,22.337757 C104.30377,23.1250467 103.358358,23.897757 102.399832,24.6562617 C101.44168,25.4151402 100.50039,26.1923364 99.5767124,26.9852336 C99.4811595,27.0704673 99.4024689,27.1115888 99.3421394,27.108972 C99.1866318,27.1609346 99.0348713,27.1459813 98.8864833,27.064486 C98.7369712,26.9826168 98.6039465,26.9085981 98.4847865,26.8431776 C98.1295546,26.617757 97.8492661,26.3945794 97.6461694,26.175514 C97.4397002,26.0166355 97.2403507,25.8424299 97.0514932,25.6543925 C96.8607622,25.4663551 96.6779002,25.2936449 96.5017831,25.135514 C96.4140993,25.0420561 96.3728804,24.9358879 96.3781264,24.8158879 C96.323043,24.6637383 96.3245419,24.4846729 96.3796253,24.2771963 C96.434334,24.0704673 96.4961623,23.8783178 96.5658597,23.7014953 C96.5958371,23.7029907 96.6130741,23.6742056 96.6156971,23.6143925 C96.011653,24.0962617 95.400864,24.6009346 94.7822059,25.1284112 C94.1631731,25.6566355 93.5692463,26.1773832 92.9993015,26.693271 C92.9367237,26.7205607 92.8745206,26.7482243 92.8126923,26.7758879 C92.7497398,26.8028037 92.6894104,26.8158879 92.6283314,26.813271 C92.5346521,26.8693458 92.4046253,26.8562617 92.2408739,26.775514 C92.0759983,26.6940187 91.9339805,26.6211215 91.8148204,26.5568224 C91.6960351,26.462243 91.5630105,26.3605607 91.4149972,26.2495327 C91.2658597,26.1392523 91.1185959,26.0214953 90.9705826,25.8958879 C90.7933413,25.74 90.6082311,25.5676636 90.4171253,25.3814953 C90.2248954,25.1949533 90.0409092,25.0241121 89.8632933,24.8671028 C89.7156547,24.7127103 89.6133569,24.5885981 89.5556505,24.4970093 C89.5013165,24.3157009 89.5155557,24.1299065 89.5987429,23.9373832 C89.6815554,23.746729 89.8025891,23.5785047 89.9614692,23.4342056 C90.0884983,23.2895327 90.217401,23.1295327 90.3466785,22.9549533 C90.4752064,22.78 90.6190979,22.6214953 90.7783527,22.4771963 C91.0039324,22.1560748 91.2381307,21.8659813 91.4786991,21.6054206 C91.7185181,21.3456075 91.9512175,21.0700935 92.1782961,20.7796262 C92.8209361,20.0573832 93.4508357,19.3254206 94.0668708,18.5878505 C94.6825311,17.8502804 95.3315413,17.1216822 96.011653,16.4031776 C96.4002347,16.0009346 96.7888165,15.5990654 97.1785223,15.1971963 C97.5682282,14.7960748 97.9732975,14.3953271 98.3956038,13.9949533 C98.7527093,13.6521495 99.1255529,13.3108411 99.5145093,12.9699065 C99.9030911,12.6293458 100.307411,12.304486 100.726719,11.9953271 C100.856372,11.8824299 101.066963,11.7198131 101.357743,11.5100935 C101.648149,11.3003738 101.944925,11.1127103 102.24957,10.9485981 C102.55384,10.7841121 102.863732,10.6588785 103.180368,10.5695327 C103.496254,10.4816822 103.775419,10.5037383 104.018235,10.6360748 C104.84711,11.1590654 105.67486,11.6831776 106.500737,12.208785 C106.695215,12.0704673 106.86721,11.9224299 107.016348,11.7661682 C107.16511,11.6106542 107.30488,11.4757009 107.436031,11.3635514 C107.53608,11.2491589 107.634631,11.1657944 107.730933,11.1104673 C107.731683,11.095514 107.732432,11.0809346 107.733556,11.0659813 C107.74892,11.066729 107.764658,11.0678505 107.780021,11.0685981 C108.03333,10.9934579 108.219564,11.0192523 108.336851,11.1456075 C108.454887,11.2420561 108.627257,11.3728972 108.851338,11.5351402 C109.075044,11.6985047 109.274393,11.8828037 109.449012,12.0876636 C109.623255,12.2928972 109.734546,12.5018692 109.784758,12.7142056 C109.833471,12.9272897 109.774641,13.1336449 109.607142,13.3328972 C109.314113,13.5557009 109.01996,13.7919626 108.725807,14.0446729 C108.43128,14.2966355 108.150617,14.58 107.884567,14.8940187 C107.233309,15.4256075 106.597039,15.9814953 105.977257,16.5601869 C105.356725,17.1403738 104.751932,17.7441121 104.162501,18.3706542 C104.095052,18.4566355 104.037346,18.5437383 103.986384,18.6308411 C103.935798,18.7175701 103.861604,18.8035514 103.764552,18.8884112 C103.50225,19.1740187 103.247067,19.4753271 102.999754,19.7915888 C102.751691,20.1082243 102.496883,20.4241121 102.234581,20.74 C102.03823,20.9699065 101.848997,21.1998131 101.668758,21.4297196 C101.48777,21.6611215 101.314651,21.8914019 101.149775,22.1224299 C100.918575,22.4401869 100.704236,22.744486 100.505262,23.0338318 C100.503763,23.0637383 100.477533,23.1295327 100.426571,23.2319626 C100.375609,23.3343925 100.365117,23.3863551 100.396219,23.3874766 C100.411582,23.3882243 100.426946,23.388972 100.441934,23.3897196 C100.471912,23.391215 100.566715,23.3358879 100.726345,23.2241121 C100.885225,23.1127103 101.059468,22.9934579 101.250199,22.8685981 C101.440181,22.7433645 101.614799,22.6252336 101.774429,22.5130841 C101.933309,22.4020561 102.044225,22.3321495 102.107552,22.3059813 C102.648269,21.944486 103.19011,21.5684112 103.7342,21.177757 C104.277914,20.7878505 104.822004,20.3975701 105.367967,20.0084112 C105.817627,19.6734579 106.259794,19.3545794 106.693716,19.0495327 C107.127639,18.7448598 107.554067,18.4398131 107.974125,18.1347664 C108.295632,17.9138318 108.617514,17.7 108.939021,17.4947664 C109.259779,17.2895327 109.582786,17.0764486 109.905792,16.8562617 C109.970618,16.8005607 110.058676,16.7530841 110.169967,16.7149533 C110.280509,16.6768224 110.363322,16.7041121 110.420279,16.7979439 C110.479859,16.831215 110.538689,16.8798131 110.59677,16.9433645 C110.619628,16.968785 110.643235,16.9942056 110.666093,17.0192523 C111.413279,16.2775701 112.185946,15.5381308 112.992337,14.8013084 C113.355064,14.4648598 113.734652,14.1302804 114.129604,13.7960748 C114.524556,13.462243 114.934497,13.1456075 115.359801,12.8439252 C115.522053,12.735514 115.743136,12.5766355 116.022301,12.3714019 C116.300715,12.1654206 116.601613,11.9837383 116.92462,11.8259813 C117.246876,11.6682243 117.559391,11.5478505 117.862162,11.4637383 C118.164559,11.3803738 118.435105,11.4069159 118.675673,11.5433645 C119.495554,12.0813084 120.313937,12.6203738 121.130445,13.1605607 C121.296445,13.0237383 121.462445,12.8775701 121.630318,12.7254206 C121.797442,12.5736449 121.947329,12.4420561 122.081103,12.3321495 C122.115952,12.2749533 122.159044,12.2252336 122.209256,12.1841121 C122.259094,12.1429907 122.299938,12.1085981 122.334037,12.0809346 C122.3494,12.0820561 122.365139,12.0831776 122.380502,12.0842991 C122.381626,12.0697196 122.38275,12.0547664 122.383874,12.0398131 C122.399238,12.0409346 122.414976,12.0424299 122.430339,12.0435514 C122.654046,11.9702804 122.854894,12.0009346 123.032135,12.1336449 C123.150921,12.2039252 123.329286,12.3220561 123.566482,12.4899065 C123.802554,12.6581308 124.022138,12.8476636 124.223736,13.0581308 C124.424959,13.2693458 124.571099,13.4906542 124.66253,13.7224299 Z M118.53403,14.8390654 C118.609348,14.6499065 118.604477,14.5063551 118.517917,14.4102804 C118.459836,14.346729 118.36878,14.3179439 118.244374,14.3235514 C118.119218,14.3299065 118.023665,14.3605607 117.95809,14.4158879 C117.765485,14.4921495 117.58,14.5919626 117.400885,14.7142056 C117.221396,14.8368224 117.05015,14.9527103 116.887148,15.0607477 C116.46072,15.391215 116.065768,15.7168224 115.703042,16.0364486 C115.339566,16.3575701 114.960727,16.6988785 114.564651,17.062243 C114.166701,17.455514 113.768751,17.8566355 113.371551,18.2652336 C112.973602,18.6738318 112.591015,19.091028 112.224917,19.5175701 C111.529441,20.2525234 110.859822,20.982243 110.215308,21.7063551 C109.57042,22.4315888 108.905297,23.1478505 108.21844,23.8558879 C108.184716,23.9138318 108.150617,23.9717757 108.116517,24.0297297 C108.14612,24.0308411 108.410296,23.8446729 108.909044,23.4700935 C109.407043,23.095514 109.94851,22.6641121 110.532319,22.175514 C111.116128,21.6876636 111.668087,21.2278505 112.189318,20.7964486 C112.709426,20.3654206 113.020066,20.1074766 113.117868,20.024486 C113.768751,19.4973832 114.414014,18.9702804 115.052533,18.4431776 C115.691051,17.9171963 116.308585,17.3747664 116.905134,16.8158879 C117.168561,16.5942056 117.432736,16.3579439 117.698785,16.106729 C117.964835,15.855514 118.185168,15.586729 118.36166,15.2988785 C118.400256,15.182243 118.457588,15.028972 118.53403,14.8390654 Z M98.6612783,19.2173832 C99.2716926,18.6768224 99.8839805,18.1373832 100.497393,17.5983178 C101.110055,17.06 101.740704,16.5078505 102.38934,15.9418692 C102.617542,15.7142056 102.855113,15.4715888 103.100553,15.2147664 C103.346742,14.9583178 103.554335,14.6846729 103.725206,14.3938318 C103.793405,14.2783178 103.871346,14.1254206 103.95903,13.9347664 C104.046339,13.7448598 104.047089,13.6024299 103.958655,13.5078505 C103.808019,13.4102804 103.613915,13.415514 103.37597,13.5220561 C103.137275,13.6293458 102.969027,13.7257944 102.871975,13.8106542 C102.711971,13.8917757 102.543348,14.0035514 102.365732,14.1437383 C102.187367,14.2842991 102.017995,14.4256075 101.855742,14.5669159 C101.661264,14.7366355 101.457793,14.9220561 101.246827,15.1205607 C101.035112,15.3198131 100.847753,15.5198131 100.682878,15.7209346 C98.3637528,18.182243 96.0648628,20.6528972 93.786957,23.1336449 C93.7382438,23.1915888 93.6899053,23.2495327 93.6415667,23.3074864 C93.6719188,23.3085981 93.9323473,23.1171963 94.424351,22.7336449 C94.9156052,22.3500935 95.4634417,21.9097196 96.0689847,21.4121495 C96.674153,20.9153271 97.2339805,20.4465421 97.7469683,20.0054206 C98.2592067,19.5650467 98.564976,19.302243 98.6612783,19.2173832 Z" id="Combined-Shape"></path>
                </g>
            </g>
        </g>
    </g>
</svg>