<?xml version="1.0" encoding="UTF-8"?>
<svg width="20px" height="15px" viewBox="0 0 20 15" version="1.1" xmlns="http://www.w3.org/2000/svg" xmlns:xlink="http://www.w3.org/1999/xlink">
    <!-- Generator: Sketch 48.1 (47250) - http://www.bohemiancoding.com/sketch -->
    <title>twitter-dark</title>
    <desc>Created with Sketch.</desc>
    <defs></defs>
    <g id="Mk2Swag---Feature-Post" stroke="none" stroke-width="1" fill="none" fill-rule="evenodd" transform="translate(-973.000000, -3938.000000)">
        <g id="Group-22" transform="translate(882.000000, 3934.000000)" fill="#0D0D0D">
            <g id="Group-21" transform="translate(91.000000, 3.000000)">
                <path d="M20,2.77473603 C19.2638877,3.07590134 18.4740498,3.28014821 17.6441792,3.37133362 C18.4915335,2.90282407 19.140162,2.1597022 19.4475808,1.2769357 C18.6527429,1.71080566 17.7753885,2.02585095 16.8405504,2.19663501 C16.0919544,1.45927635 15.0271487,1 13.8461011,1 C11.5802804,1 9.7431205,2.69628399 9.7431205,4.78721192 C9.7431205,5.08376063 9.77936238,5.37339953 9.8493625,5.65036541 C6.44001052,5.49225437 3.41683565,3.98407424 1.39346633,1.69233926 C1.03977294,2.25085744 0.838563462,2.90164729 0.838563462,3.59634011 C0.838563462,4.91068336 1.56343393,6.07038556 2.66323965,6.74887502 C1.99085293,6.7281154 1.35846627,6.55733134 0.804837916,6.27345565 L0.804837916,6.32076827 C0.804837916,8.15552011 2.21957879,9.68678325 4.09546421,10.0352913 C3.75177084,10.1206834 3.38935194,10.167996 3.01441669,10.167996 C2.74948162,10.167996 2.49327205,10.1437664 2.24206249,10.0976004 C2.76444896,11.6034873 4.27919,12.6985571 6.07386613,12.7285801 C4.67036711,13.7440512 2.90069101,14.3475586 0.97856369,14.3475586 C0.647386679,14.3475586 0.321176995,14.3290922 0,14.2956294 C1.815918,15.372263 3.9717712,16 6.28883381,16 C13.8361664,16 17.9616633,10.2280118 17.9616633,5.22225865 L17.9479051,4.73184288 C18.7539849,4.20099413 19.451339,3.53403109 20,2.77473603 L20,2.77473603 Z" id="twitter-dark"></path>
            </g>
        </g>
    </g>
</svg>